<?xml version="1.0" encoding="UTF-8"?>
<svg width="343px" height="65px" viewBox="0 0 343 65" version="1.1" xmlns="http://www.w3.org/2000/svg" xmlns:xlink="http://www.w3.org/1999/xlink">
    <title>Group 95</title>
    <defs>
        <polygon id="path-1" points="-2.78518328e-15 0 21.2131574 0 21.2131574 14.0640625 -2.78518328e-15 14.0640625"></polygon>
        <polygon id="path-3" points="5.57036655e-15 -1.11777337e-14 27.7004214 -1.11777337e-14 27.7004214 27.3462814 5.57036655e-15 27.3462814"></polygon>
        <polygon id="path-5" points="-4.45629324e-14 0 7.21995247 0 7.21995247 10.2913914 -4.45629324e-14 10.2913914"></polygon>
    </defs>
    <g id="Website" stroke="none" stroke-width="1" fill="none" fill-rule="evenodd">
        <g id="QES_Home" transform="translate(-131.000000, -13.000000)">
            <g id="Navigation" transform="translate(0.000000, -15.000000)">
                <g id="Group-95" transform="translate(131.000000, 28.000000)">
                    <g id="Group-25">
                        <path d="M39.3195294,15.209377 C42.726617,16.9492546 45.4367646,19.6731225 47.1661791,23.0946719 L59.3685071,18.0339251 C56.2702995,11.3630836 51.0256112,6.09311092 44.3815553,2.97360173 L39.3195294,15.209377 Z" id="Fill-1" fill="#90AFD4"></path>
                        <path d="M48.2952374,36.8702231 L60.427793,41.9223178 C62.9364631,35.0068552 62.9411669,27.5596759 60.4411203,20.6394939 L48.303077,25.6742842 C49.4915594,29.3302294 49.4899915,33.2158511 48.2952374,36.8702231" id="Fill-3" fill="#A6BFDC"></path>
                        <path d="M14.0173967,25.6502154 L1.88562497,20.5981207 C-0.623829066,27.5135833 -0.628532822,34.9607626 1.8715137,41.880158 L14.0095571,36.8453677 C12.8202907,33.1894225 12.8226425,29.305374 14.0173967,25.6502154" id="Fill-5" fill="#4E7EBA"></path>
                        <g id="Group-9" transform="translate(20.571140, 0.000000)">
                            <mask id="mask-2" fill="white">
                                <use xlink:href="#path-1"></use>
                            </mask>
                            <g id="Clip-8"></g>
                            <path d="M5.01812411,14.0569835 C6.83612595,13.4615552 8.70978891,13.1492897 10.5873717,13.1492897 C12.4720101,13.1492897 14.3527287,13.4639149 16.1777861,14.0640625 L21.2131574,1.89199884 C14.3198024,-0.626576151 6.89570687,-0.630508967 -2.78518328e-15,1.8778407 L5.01812411,14.0569835 Z" id="Fill-7" fill="#7A9FCB" mask="url(#mask-2)"></path>
                        </g>
                        <path d="M15.1590767,23.0709177 C16.8939789,19.6525146 19.6088303,16.933366 23.0182697,15.1982078 L17.9742749,2.95456691 C11.3262992,6.06463733 6.0729873,11.3259578 2.96380433,17.9920799 L15.1590767,23.0709177 Z" id="Fill-10" fill="#648FC2"></path>
                        <path d="M22.9949077,47.3103536 C19.5870362,45.5704761 16.8768886,42.8466081 15.1474741,39.4250587 L2.94436213,44.485019 C6.04413759,51.1566471 11.288042,56.4266197 17.9328819,59.5461289 L22.9949077,47.3103536 Z" id="Fill-12" fill="#376EB1"></path>
                        <path d="M36.7239967,48.4632978 C33.0809373,49.656514 29.2097458,49.6549408 25.5659025,48.4562187 L20.5305313,60.6282824 C23.9830885,61.889143 27.565783,62.5561485 31.1555331,62.5561485 C34.7319558,62.5561485 38.300539,61.8938624 41.7413368,60.6424405 L36.7239967,48.4632978 Z" id="Fill-14" fill="#215EA8"></path>
                        <g id="Group-18" transform="translate(37.425640, 37.653719)">
                            <mask id="mask-4" fill="white">
                                <use xlink:href="#path-3"></use>
                            </mask>
                            <g id="Clip-17"></g>
                            <path d="M6.2269895,-1.11777337e-14 C4.17771963,2.90241777 3.10996693,3.88562163 5.57036655e-15,5.87483966 L9.34949978,27.3464387 C17.7464889,25.6875771 24.6296524,20.8832498 27.7004214,9.15952709 L6.2269895,-1.11777337e-14 Z" id="Fill-16" fill="#DE3D3B" mask="url(#mask-4)"></path>
                        </g>
                        <path d="M131.441658,18.1294925 C131.441658,15.5676565 132.811235,14.2847721 135.554309,14.2847721 L157.191588,14.2847721 C159.447039,14.2847721 160.573589,15.3033713 160.573589,17.3389966 C160.573589,18.0555556 160.460699,18.7052567 160.235702,19.2888865 C160.009922,19.874876 159.840587,20.2595053 159.727697,20.4482805 L138.259752,20.4482805 L138.259752,30.1725598 L156.404493,30.1725598 C158.619962,30.1725598 159.727697,31.1895859 159.727697,33.2252112 C159.727697,33.9417701 159.624998,34.5914712 159.418033,35.175101 C159.211851,35.7610905 159.032325,36.147293 158.883372,36.334495 L138.259752,36.334495 L138.259752,46.907476 L160.235702,46.907476 L160.235702,53.0694112 L131.441658,53.0694112 L131.441658,18.1294925 Z" id="Fill-19" fill="#1C3052"></path>
                        <path d="M168.630732,44.1935974 C169.043094,44.4956376 169.663206,44.8637491 170.490283,45.2963588 C171.315792,45.7289685 172.339643,46.1639379 173.560268,46.5965476 C174.780893,47.0299439 176.170853,47.3972688 177.730932,47.6977359 C179.28866,48.0005627 180.989067,48.1515828 182.829804,48.1515828 C186.098131,48.1515828 188.436682,47.6702062 189.845457,46.7082396 C191.255016,45.747846 191.958227,44.3823725 191.958227,42.6102459 C191.958227,41.7442399 191.799084,41.0088035 191.479228,40.4055096 C191.160157,39.8030023 190.691349,39.2838706 190.071237,38.8512609 C189.451909,38.4178647 188.698524,38.0694172 187.81657,37.805132 C186.933048,37.54242 185.92958,37.3151032 184.802246,37.1263281 L178.604263,35.9960369 C177.026937,35.7317517 175.505271,35.3368971 174.039267,34.8075401 C172.574047,34.2805428 171.278946,33.5844345 170.151613,32.7168554 C169.024279,31.8492764 168.122726,30.7858431 167.446169,29.5218362 C166.77118,28.2594025 166.432509,26.7421223 166.432509,24.9715688 C166.432509,23.3874307 166.723358,21.8811624 167.30584,20.4480445 C167.887538,19.0157131 168.817314,17.7721569 170.094384,16.7173758 C171.372238,15.6625947 172.987978,14.8225453 174.941605,14.2011605 C176.893664,13.5789891 179.261221,13.2682967 182.041925,13.2682967 C184.070812,13.2682967 185.835504,13.3815618 187.337571,13.6065188 C188.840421,13.833049 190.118275,14.1075595 191.169564,14.4276907 C192.220854,14.7470353 193.065962,15.0766052 193.704889,15.417187 C194.343816,15.7554091 194.812624,16.0196943 195.113664,16.2076829 C195.714961,16.6229882 196.202584,17.0744754 196.579668,17.5645042 C196.954401,18.0553196 197.142551,18.6208584 197.142551,19.2611208 C197.142551,20.1286999 196.879141,20.9294211 196.353104,21.6632844 C195.827851,22.3979344 195.339444,22.917066 194.889452,23.2175331 C194.550781,22.8415559 194.014553,22.418385 193.283119,21.9464472 C192.550901,21.4752959 191.648563,21.0324609 190.578459,20.6187287 C189.508354,20.2026368 188.258723,19.8455372 186.830349,19.5434969 C185.402759,19.2422433 183.844248,19.0912232 182.154815,19.0912232 C180.463031,19.0912232 179.045632,19.2233658 177.900267,19.4868644 C176.753335,19.7511496 175.842374,20.1184746 175.165817,20.5896258 C174.490044,21.0615637 174.001637,21.6271025 173.702165,22.2846693 C173.401124,22.9461688 173.24982,23.6902575 173.24982,24.5177219 C173.24982,25.9524129 173.804864,27.0724788 174.912598,27.8834253 C176.020333,28.6935853 177.871261,29.3432864 180.463031,29.8325286 L186.773904,31.0202389 C190.869308,31.7753394 193.949484,33.0086703 196.016001,34.7233779 C198.08095,36.4396585 199.114993,38.9165457 199.114993,42.1579721 C199.114993,43.9670672 198.757507,45.598399 198.044888,47.0488214 C197.330701,48.5000303 196.288035,49.7538118 194.91689,50.8085929 C193.545745,51.863374 191.836714,52.6743205 189.789012,53.2398594 C187.74131,53.8046117 185.383944,54.0862013 182.717698,54.0862013 C180.463031,54.0862013 178.396514,53.9076514 176.518931,53.5505518 C174.640564,53.191879 172.969163,52.7584828 171.503943,52.250363 C170.037939,51.7414567 168.817314,51.2231116 167.841284,50.6953278 C166.863687,50.1683306 166.151852,49.7538118 165.699507,49.4517716 L168.630732,44.1935974 Z" id="Fill-21" fill="#1C3052"></path>
                        <path d="M124.849813,33.677249 C124.849813,30.7756178 124.322993,28.0808526 123.271703,25.5929536 C122.21963,23.1058411 120.764601,20.9482986 118.905049,19.1187529 C117.044714,17.2915668 114.866874,15.860022 112.368396,14.8225453 C109.869133,13.7866417 107.155066,13.2682967 104.22541,13.2682967 C101.296537,13.2682967 98.5809018,13.7866417 96.0832072,14.8225453 C93.5847286,15.860022 91.4068894,17.2915668 89.5465537,19.1187529 C87.6870021,20.9482986 86.2311894,23.1058411 85.1798999,25.5929536 C84.1270424,28.0808526 83.6017896,30.7756178 83.6017896,33.677249 C83.6017896,36.5804533 84.1270424,39.2649931 85.1798999,41.7340146 C86.2311894,44.2038227 87.6870021,46.3409146 89.5465537,48.1515828 C91.4068894,49.9598913 93.5847286,51.3827839 96.0832072,52.4202607 C98.5809018,53.4561642 101.296537,53.9745093 104.22541,53.9745093 C105.840366,53.9745093 107.418476,53.8132639 108.95974,53.4939193 C110.498653,53.1730015 111.889397,52.693198 113.128836,52.0521491 L116.781303,56.7573695 L121.731223,53.017262 L118.256715,48.6597026 C120.285602,46.8883625 121.891151,44.7119424 123.074145,42.1304424 C124.257924,39.5489424 124.849813,36.7299003 124.849813,33.677249 M116.819717,39.3593807 C116.162759,41.0756613 115.289429,42.4788899 114.198941,43.571426 L110.335589,38.5028135 L105.436627,42.2051659 C105.64516,42.5150718 105.890539,42.8713848 106.084961,43.1183656 L109.183953,46.9638726 C107.720301,47.6411034 106.066146,47.9816852 104.22541,47.9816852 C102.272567,47.9816852 100.46946,47.623799 98.8153057,46.9080266 C97.1635033,46.1914676 95.7249378,45.2019712 94.5058809,43.9395375 C93.2836882,42.6771038 92.3366652,41.1684758 91.6601083,39.4160132 C90.9843353,37.6627641 90.6456648,35.7506293 90.6456648,33.677249 C90.6456648,31.6054418 90.9843353,29.6917338 91.6601083,27.9400578 C92.3366652,26.1860222 93.2836882,24.6789673 94.5058809,23.4165336 C95.7249378,22.1540998 97.1635033,21.1748288 98.8153057,20.4763608 C100.46946,19.7802524 102.272567,19.4302319 104.22541,19.4302319 C106.179036,19.4302319 107.982143,19.7802524 109.635513,20.4763608 C111.2881,21.1748288 112.714906,22.1540998 113.918284,23.4165336 C115.120093,24.6789673 116.068684,26.1860222 116.763272,27.9400578 C117.458644,29.6917338 117.805938,31.6054418 117.805938,33.677249 C117.805938,35.7506293 117.475891,37.6454597 116.819717,39.3593807" id="Fill-23" fill="#1C3052"></path>
                    </g>
                    <polygon id="Fill-26" fill="#8CABD4" points="220.214946 29.5555011 220.214946 37.9795917 218.196251 37.9795917 218.196251 29.5555011 214.942035 29.5555011 214.942035 27.6457259 223.469162 27.6457259 223.469162 29.5555011"></polygon>
                    <g id="Group-37" transform="translate(222.554360, 27.427455)" fill="#8CABD4">
                        <path d="M6.94431235,8.4968477 C6.58133915,9.73568455 5.44773386,10.7715881 3.69009689,10.7715881 C1.72863047,10.7715881 0,9.35734771 0,6.9370931 C0,4.6489811 1.68472875,3.16237687 3.5160579,3.16237687 C5.72368757,3.16237687 7.04622707,4.57661729 7.04622707,6.879674 C7.04622707,7.1565442 7.01643661,7.44757255 7.01643661,7.47746194 L1.90266946,7.47746194 C1.94657119,8.42448389 2.74542581,9.10958034 3.70420816,9.10958034 C4.6049775,9.10958034 5.09887193,8.65809313 5.33170787,8.01625765 L6.94431235,8.4968477 Z M5.14277365,6.15053002 C5.11376715,5.43633074 4.64887923,4.7362896 3.54428044,4.7362896 C2.54238033,4.7362896 1.99047291,5.49453641 1.94657119,6.15053002 L5.14277365,6.15053002 Z" id="Fill-27"></path>
                        <path d="M10.0240184,6.96729713 C10.0240184,8.26433965 10.8667748,8.99348363 11.8545636,8.99348363 C12.8423525,8.99348363 13.3370309,8.33670345 13.4961746,7.78296304 L15.1957986,8.35164815 C14.8767271,9.54722404 13.7580171,10.7711162 11.8545636,10.7711162 C9.74806474,10.7711162 8.09234249,9.16810063 8.09234249,6.96729713 C8.09234249,4.75154892 9.71905824,3.1626915 11.7965506,3.1626915 C13.7431218,3.1626915 14.8469367,4.37242552 15.1526808,5.58215954 L13.4240504,6.16500278 C13.2492274,5.5680014 12.7992347,4.95526876 11.8404524,4.95526876 C10.8518796,4.95526876 10.0240184,5.66946804 10.0240184,6.96729713" id="Fill-29"></path>
                        <path d="M18.342298,10.5525303 L16.4098381,10.5525303 L16.4098381,0 L18.342298,0 L18.342298,3.97843607 C18.807186,3.42469566 19.5919293,3.19187299 20.273974,3.19187299 C22.0904079,3.19187299 22.9331643,4.45981268 22.9331643,6.03451197 L22.9331643,10.5525303 L21.0007044,10.5525303 L21.0007044,6.36958784 C21.0007044,5.56808006 20.6087247,4.94040272 19.6789488,4.94040272 C18.865199,4.94040272 18.3861998,5.55313536 18.342298,6.33969844 L18.342298,10.5525303 Z" id="Fill-31"></path>
                        <path d="M26.3890925,10.5525303 L24.4566326,10.5525303 L24.4566326,3.38143469 L26.3310795,3.38143469 L26.3310795,4.27025097 C26.7669609,3.52773542 27.6238285,3.19187299 28.3936767,3.19187299 C30.1662089,3.19187299 30.9799587,4.45981268 30.9799587,6.03451197 L30.9799587,10.5525303 L29.0474988,10.5525303 L29.0474988,6.36958784 C29.0474988,5.56808006 28.6555191,4.94040272 27.7257433,4.94040272 C26.8829869,4.94040272 26.3890925,5.59718289 26.3890925,6.42700695 L26.3890925,10.5525303 Z" id="Fill-33"></path>
                        <path d="M39.7477606,6.96729713 C39.7477606,9.16810063 38.1351562,10.7711162 35.9996508,10.7711162 C33.8641454,10.7711162 32.2515409,9.16810063 32.2515409,6.96729713 C32.2515409,4.75154892 33.8641454,3.1626915 35.9996508,3.1626915 C38.1351562,3.1626915 39.7477606,4.75154892 39.7477606,6.96729713 M37.8160847,6.96729713 C37.8160847,5.61204894 36.9443218,4.92695249 35.9996508,4.92695249 C35.0549797,4.92695249 34.1832168,5.61204894 34.1832168,6.96729713 C34.1832168,8.30760062 35.0549797,9.0068552 35.9996508,9.0068552 C36.9443218,9.0068552 37.8160847,8.32254532 37.8160847,6.96729713" id="Fill-35"></path>
                    </g>
                    <polygon id="Fill-38" fill="#8CABD4" points="263.562178 37.979985 265.494638 37.979985 265.494638 27.4274547 263.562178 27.4274547"></polygon>
                    <g id="Group-43" transform="translate(266.754618, 30.590146)" fill="#8CABD4">
                        <path d="M7.49621977,3.80460563 C7.49621977,6.00540913 5.88361528,7.6084247 3.74810988,7.6084247 C1.61260448,7.6084247 0,6.00540913 0,3.80460563 C0,1.58885743 1.61260448,0 3.74810988,0 C5.88361528,0 7.49621977,1.58885743 7.49621977,3.80460563 M5.56454381,3.80460563 C5.56454381,2.44935744 4.69278096,1.76426099 3.74810988,1.76426099 C2.80343881,1.76426099 1.93167596,2.44935744 1.93167596,3.80460563 C1.93167596,5.14490912 2.80343881,5.8441637 3.74810988,5.8441637 C4.69278096,5.8441637 5.56454381,5.15985382 5.56454381,3.80460563" id="Fill-39"></path>
                        <path d="M10.2860177,7.31716039 C10.4169389,8.10372347 11.0409706,8.67240858 11.9566352,8.67240858 C13.1772599,8.67240858 13.8600886,8.0604625 13.8600886,6.67611147 L13.8600886,6.15068734 C13.5684557,6.61711924 12.9005223,7.06939302 11.8696157,7.06939302 C9.96616225,7.06939302 8.54249198,5.59694693 8.54249198,3.58570512 C8.54249198,1.6900881 9.90814925,0.0870725332 11.8696157,0.0870725332 C13.002437,0.0870725332 13.6562591,0.583393838 13.9032063,1.06398388 L13.9032063,0.218428568 L15.762758,0.218428568 L15.762758,6.61711924 C15.762758,8.58510008 14.702061,10.3784639 12.0146482,10.3784639 C10.0531817,10.3784639 8.74632142,9.15299862 8.54249198,7.78359229 L10.2860177,7.31716039 Z M13.8883111,3.58570512 C13.8883111,2.4782243 13.1333582,1.77818316 12.2035824,1.77818316 C11.2448,1.77818316 10.4890632,2.4782243 10.4890632,3.58570512 C10.4890632,4.70734408 11.2008983,5.40738522 12.2035824,5.40738522 C13.1913712,5.40738522 13.8883111,4.69397251 13.8883111,3.58570512 L13.8883111,3.58570512 Z" id="Fill-41"></path>
                    </g>
                    <polygon id="Fill-44" fill="#8CABD4" points="284.95839 40.8073647 286.643119 37.0759094 283.607628 30.8085747 285.771356 30.8085747 287.674809 35.0064619 289.432446 30.8085747 291.495827 30.8085747 287.006876 40.8073647"></polygon>
                    <g id="Group-51" transform="translate(297.446001, 27.252208)" fill="#8CABD4">
                        <path d="M0,10.7277766 L0,0.393910792 L3.69009689,0.393910792 C6.62445691,0.393910792 8.77485754,2.30368596 8.77485754,5.56792275 C8.77485754,8.8329461 6.60956169,10.7277766 3.67520166,10.7277766 L0,10.7277766 Z M3.60229343,8.86204894 C5.28780614,8.86204894 6.69736514,7.81277378 6.69736514,5.56792275 C6.69736514,3.32385827 5.30270137,2.25963842 3.61718866,2.25963842 L2.00458418,2.25963842 L2.00458418,8.86204894 L3.60229343,8.86204894 Z" id="Fill-45"></path>
                        <path d="M14.6734465,5.48077156 C14.4555057,5.43672403 14.2665715,5.42177933 14.0917486,5.42177933 C13.1039597,5.42177933 12.2478761,5.90315593 12.2478761,7.44796583 L12.2478761,10.7279339 L10.3154162,10.7279339 L10.3154162,3.5560517 L12.1890791,3.5560517 L12.1890791,4.62027155 C12.6249605,3.67246303 13.6127494,3.49784603 14.2226698,3.49784603 C14.3833815,3.49784603 14.528414,3.51279073 14.6734465,3.52773542 L14.6734465,5.48077156 Z" id="Fill-47"></path>
                        <path d="M16.8377232,0 C17.5056566,0 18.0293414,0.538795711 18.0293414,1.20894746 C18.0293414,1.85078293 17.5056566,2.39115177 16.8377232,2.39115177 C16.183901,2.39115177 15.6461049,1.85078293 15.6461049,1.20894746 C15.6461049,0.538795711 16.183901,0 16.8377232,0 L16.8377232,0 Z M15.8789408,10.7271473 L17.8114007,10.7271473 L17.8114007,3.5560517 L15.8789408,3.5560517 L15.8789408,10.7271473 Z" id="Fill-49"></path>
                    </g>
                    <polygon id="Fill-52" fill="#8CABD4" points="321.198951 37.979985 319.267276 37.979985 316.347027 30.8088894 318.467637 30.8088894 320.240169 35.6187226 321.939793 30.8088894 323.974168 30.8088894"></polygon>
                    <g id="Group-57" transform="translate(324.438899, 30.589832)" fill="#8CABD4">
                        <path d="M6.94431235,5.33447082 C6.58133915,6.57330768 5.44773386,7.60921126 3.69009689,7.60921126 C1.72863047,7.60921126 0,6.19497084 0,3.77471623 C0,1.48660423 1.68472875,0 3.5160579,0 C5.72368757,0 7.04622707,1.41424042 7.04622707,3.71729713 C7.04622707,3.99416733 7.01643661,4.28519567 7.01643661,4.31508507 L1.90266946,4.31508507 C1.94657119,5.26210702 2.74542581,5.94720347 3.70420816,5.94720347 C4.6049775,5.94720347 5.09887193,5.49571626 5.33170787,4.85388078 L6.94431235,5.33447082 Z M5.14277365,2.98815315 C5.11376715,2.27395387 4.64887923,1.57391273 3.54428044,1.57391273 C2.54238033,1.57391273 1.99047291,2.33215954 1.94657119,2.98815315 L5.14277365,2.98815315 Z" id="Fill-53"></path>
                        <path d="M10.245095,7.39015344 L8.31263508,7.39015344 L8.31263508,0.219057818 L10.187082,0.219057818 L10.187082,1.1078741 C10.6229634,0.365358552 11.4798311,0.0294961156 12.2496792,0.0294961156 C14.0222114,0.0294961156 14.8359612,1.2974358 14.8359612,2.8721351 L14.8359612,7.39015344 L12.9035013,7.39015344 L12.9035013,3.20721097 C12.9035013,2.40570319 12.5115216,1.77802585 11.5817458,1.77802585 C10.7389894,1.77802585 10.245095,2.43480602 10.245095,3.26463007 L10.245095,7.39015344 Z" id="Fill-55"></path>
                    </g>
                    <polygon id="Fill-58" fill="#8CABD4" points="215.915086 54.2739539 215.915086 43.9400881 222.423517 43.9400881 222.423517 45.8498633 217.91967 45.8498633 217.91967 48.4006873 221.929622 48.4006873 221.929622 50.2514703 217.933781 50.2514703 217.933781 54.2739539"></polygon>
                    <g id="Group-73" transform="translate(223.657704, 43.546177)" fill="#8CABD4">
                        <path d="M1.19161829,0 C1.85955169,0 2.38323657,0.538795711 2.38323657,1.20973402 C2.38323657,1.85078293 1.85955169,2.39115177 1.19161829,2.39115177 C0.537796147,2.39115177 0,1.85078293 0,1.20973402 C0,0.538795711 0.537796147,0 1.19161829,0 L1.19161829,0 Z M0.232835941,10.7271473 L2.16529586,10.7271473 L2.16529586,3.5560517 L0.232835941,3.5560517 L0.232835941,10.7271473 Z" id="Fill-59"></path>
                        <path d="M6.00058203,10.7277766 L4.06812211,10.7277766 L4.06812211,3.55668095 L5.94256903,3.55668095 L5.94256903,4.44549723 C6.37845046,3.70298168 7.23531808,3.36711924 8.00516621,3.36711924 C9.77769841,3.36711924 10.5914483,4.63505893 10.5914483,6.20975822 L10.5914483,10.7277766 L8.65898834,10.7277766 L8.65898834,6.5448341 C8.65898834,5.74332631 8.26700865,5.11564898 7.3372328,5.11564898 C6.49447645,5.11564898 6.00058203,5.77242915 6.00058203,6.6022532 L6.00058203,10.7277766 Z" id="Fill-61"></path>
                        <path d="M14.1570524,6.60256783 L15.9146894,6.33985576 C16.3215643,6.28243665 16.4524855,6.07871681 16.4524855,5.83094944 C16.4524855,5.32047 16.0605058,4.89808563 15.246756,4.89808563 C14.4039996,4.89808563 13.9391117,5.43688134 13.8810987,6.06377211 L12.1665795,5.69959341 C12.2833894,4.57716789 13.314296,3.33754447 15.2318607,3.33754447 C17.4982874,3.33754447 18.3410437,4.62042886 18.3410437,6.06377211 L18.3410437,9.59072098 C18.3410437,9.96984438 18.3849454,10.4803238 18.4280632,10.7280912 L16.656315,10.7280912 C16.6124132,10.5377429 16.5834067,10.1452479 16.5834067,9.86759118 C16.2196496,10.4362763 15.5376049,10.931811 14.4769078,10.931811 C12.9513228,10.931811 12.021547,9.89748058 12.021547,8.7742685 C12.021547,7.49138411 12.9654341,6.77797139 14.1570524,6.60256783 M16.4524855,7.82645998 L16.4524855,7.50632881 L14.839881,7.75409618 C14.3459866,7.82645998 13.9540069,8.10411675 13.9540069,8.65785716 C13.9540069,9.0810281 14.2589671,9.48846778 14.8837828,9.48846778 C15.6967487,9.48846778 16.4524855,9.09518623 16.4524855,7.82645998" id="Fill-63"></path>
                        <path d="M21.7907002,10.7277766 L19.8582403,10.7277766 L19.8582403,3.55668095 L21.7326872,3.55668095 L21.7326872,4.44549723 C22.1685687,3.70298168 23.0254363,3.36711924 23.7952844,3.36711924 C25.5678166,3.36711924 26.3815665,4.63505893 26.3815665,6.20975822 L26.3815665,10.7277766 L24.4491066,10.7277766 L24.4491066,6.5448341 C24.4491066,5.74332631 24.0571269,5.11564898 23.127351,5.11564898 C22.2845947,5.11564898 21.7907002,5.77242915 21.7907002,6.6022532 L21.7907002,10.7277766 Z" id="Fill-65"></path>
                        <path d="M29.6466006,7.14254338 C29.6466006,8.4395859 30.4893569,9.16872988 31.4771458,9.16872988 C32.4649346,9.16872988 32.959613,8.51194971 33.1187568,7.9582093 L34.8191647,8.52689441 C34.4993093,9.72247029 33.3805992,10.9463624 31.4771458,10.9463624 C29.3714308,10.9463624 27.7149246,9.34334689 27.7149246,7.14254338 C27.7149246,4.92679518 29.3416404,3.33793775 31.4191328,3.33793775 C33.365704,3.33793775 34.4695188,4.54767177 34.775263,5.75740579 L33.0466325,6.34024904 C32.8718095,5.74324766 32.4218168,5.13051502 31.4622505,5.13051502 C30.4744617,5.13051502 29.6466006,5.8447143 29.6466006,7.14254338" id="Fill-67"></path>
                        <path d="M37.1149114,0 C37.7828448,0 38.3057457,0.538795711 38.3057457,1.20973402 C38.3057457,1.85078293 37.7828448,2.39115177 37.1149114,2.39115177 C36.4610893,2.39115177 35.9232931,1.85078293 35.9232931,1.20973402 C35.9232931,0.538795711 36.4610893,0 37.1149114,0 L37.1149114,0 Z M36.156129,10.7271473 L38.088589,10.7271473 L38.088589,3.5560517 L36.156129,3.5560517 L36.156129,10.7271473 Z" id="Fill-69"></path>
                        <path d="M41.6438448,6.60256783 L43.4014818,6.33985576 C43.8083567,6.28243665 43.939278,6.07871681 43.939278,5.83094944 C43.939278,5.32047 43.5472983,4.89808563 42.7335484,4.89808563 C41.890792,4.89808563 41.4259041,5.43688134 41.3678911,6.06377211 L39.6533719,5.69959341 C39.7701819,4.57716789 40.8010885,3.33754447 42.7186532,3.33754447 C44.9850798,3.33754447 45.8278361,4.62042886 45.8278361,6.06377211 L45.8278361,9.59072098 C45.8278361,9.96984438 45.8717379,10.4803238 45.9148556,10.7280912 L44.1423234,10.7280912 C44.0992057,10.5377429 44.0694152,10.1452479 44.0694152,9.86759118 C43.707226,10.4362763 43.0243973,10.931811 41.9637003,10.931811 C40.4381153,10.931811 39.5083394,9.89748058 39.5083394,8.7742685 C39.5083394,7.49138411 40.4530105,6.77797139 41.6438448,6.60256783 M43.939278,7.82645998 L43.939278,7.50632881 L42.3266735,7.75409618 C41.832779,7.82645998 41.4407994,8.10411675 41.4407994,8.65785716 C41.4407994,9.0810281 41.7457596,9.48846778 42.3705752,9.48846778 C43.1835411,9.48846778 43.939278,9.09518623 43.939278,7.82645998" id="Fill-71"></path>
                    </g>
                    <polygon id="Fill-74" fill="#8CABD4" points="271.02312 54.2736392 272.95558 54.2736392 272.95558 43.7211089 271.02312 43.7211089"></polygon>
                    <g id="Group-94" transform="translate(279.910946, 43.546177)">
                        <path d="M3.06528125,6.7487899 L2.01869545,6.7487899 L2.01869545,10.7280125 L0,10.7280125 L0,0.394146761 L4.02406359,0.394146761 C6.02864777,0.394146761 7.30728555,1.77849779 7.30728555,3.57107505 C7.30728555,5.01441831 6.4645292,6.10695443 5.11376715,6.50102253 L7.32139682,10.7280125 L5.08476066,10.7280125 L3.06528125,6.7487899 Z M3.64619516,5.01441831 C4.6629905,5.01441831 5.25879964,4.4307885 5.25879964,3.58523319 C5.25879964,2.7113616 4.6629905,2.14188993 3.64619516,2.14188993 L2.01869545,2.14188993 L2.01869545,5.01441831 L3.64619516,5.01441831 Z" id="Fill-75" fill="#8CABD4"></path>
                        <path d="M14.9281549,8.67217261 C14.5651817,9.91100946 13.4315764,10.946913 11.6739394,10.946913 C9.71247298,10.946913 7.98384251,9.53267262 7.98384251,7.11241802 C7.98384251,4.82430601 9.66857126,3.33770178 11.4999004,3.33770178 C13.7075301,3.33770178 15.0300696,4.75194221 15.0300696,7.05499891 C15.0300696,7.33186912 15.0002791,7.62289746 15.0002791,7.65278685 L9.88651197,7.65278685 C9.9304137,8.5998088 10.7292683,9.28490525 11.6880507,9.28490525 C12.58882,9.28490525 13.0827144,8.83341804 13.3155504,8.19158256 L14.9281549,8.67217261 Z M13.1266162,6.32585493 C13.0976097,5.61244222 12.6327217,4.91161451 11.5281229,4.91161451 C10.5262228,4.91161451 9.97431542,5.66986132 9.9304137,6.32585493 L13.1266162,6.32585493 Z" id="Fill-77" fill="#8CABD4"></path>
                        <path d="M16.2659032,13.4975011 L16.2659032,3.55613035 L18.1403501,3.55613035 L18.1403501,4.4307885 C18.4594216,3.87783465 19.2590602,3.39645805 20.3338685,3.39645805 C22.4254722,3.39645805 23.6319857,4.99947361 23.6319857,7.12791331 C23.6319857,9.29961398 22.2804397,10.9026295 20.2609603,10.9026295 C19.2731714,10.9026295 18.5464411,10.509348 18.1983631,10.0279714 L18.1983631,13.4975011 L16.2659032,13.4975011 Z M19.9560001,5.13082964 C18.9682112,5.13082964 18.1693566,5.87334519 18.1693566,7.14285801 C18.1693566,8.4107977 18.9682112,9.16825794 19.9560001,9.16825794 C20.9437889,9.16825794 21.7285323,8.42416927 21.7285323,7.14285801 C21.7285323,5.87334519 20.9437889,5.13082964 19.9560001,5.13082964 L19.9560001,5.13082964 Z" id="Fill-79" fill="#8CABD4"></path>
                        <path d="M32.1278321,7.14254338 C32.1278321,9.34334689 30.5152276,10.9463624 28.3797222,10.9463624 C26.2442168,10.9463624 24.6316123,9.34334689 24.6316123,7.14254338 C24.6316123,4.92679518 26.2442168,3.33793775 28.3797222,3.33793775 C30.5152276,3.33793775 32.1278321,4.92679518 32.1278321,7.14254338 M30.1961561,7.14254338 C30.1961561,5.78729519 29.3243933,5.10219875 28.3797222,5.10219875 C27.4350511,5.10219875 26.5640722,5.78729519 26.5640722,7.14254338 C26.5640722,8.48284687 27.4350511,9.18210145 28.3797222,9.18210145 C29.3243933,9.18210145 30.1961561,8.49779157 30.1961561,7.14254338" id="Fill-81" fill="#8CABD4"></path>
                        <path d="M37.559338,5.48077156 C37.3413973,5.43672403 37.152463,5.42177933 36.9776401,5.42177933 C35.9898513,5.42177933 35.1337676,5.90315593 35.1337676,7.44796583 L35.1337676,10.7279339 L33.2013077,10.7279339 L33.2013077,3.5560517 L35.0749706,3.5560517 L35.0749706,4.62027155 C35.5108521,3.67246303 36.4986409,3.49784603 37.1085613,3.49784603 C37.269273,3.49784603 37.4143055,3.51279073 37.559338,3.52773542 L37.559338,5.48077156 Z" id="Fill-83" fill="#8CABD4"></path>
                        <path d="M41.734157,3.55644498 L43.1727225,3.55644498 L43.1727225,5.27665844 L41.734157,5.27665844 L41.734157,8.27896972 C41.734157,8.9058605 42.0250059,9.10958034 42.5769133,9.10958034 C42.8089653,9.10958034 43.0708077,9.08126407 43.1727225,9.05216123 L43.1727225,10.6551768 C42.9978995,10.7275406 42.6498215,10.8305804 42.0830189,10.8305804 C40.6883551,10.8305804 39.8165923,9.99918318 39.8165923,8.61483216 L39.8165923,5.27665844 L38.5238432,5.27665844 L38.5238432,3.55644498 L38.8868164,3.55644498 C39.6425533,3.55644498 39.9914152,3.06091024 39.9914152,2.41986132 L39.9914152,1.4146337 L41.734157,1.4146337 L41.734157,3.55644498 Z" id="Fill-85" fill="#8CABD4"></path>
                        <path d="M45.6137368,0 C46.2816702,0 46.8053551,0.538795711 46.8053551,1.20973402 C46.8053551,1.85078293 46.2816702,2.39115177 45.6137368,2.39115177 C44.9599147,2.39115177 44.4221185,1.85078293 44.4221185,1.20973402 C44.4221185,0.538795711 44.9599147,0 45.6137368,0 L45.6137368,0 Z M44.6549545,10.7271473 L46.5874144,10.7271473 L46.5874144,3.5560517 L44.6549545,3.5560517 L44.6549545,10.7271473 Z" id="Fill-87" fill="#8CABD4"></path>
                        <path d="M50.1457277,10.7277766 L48.2132678,10.7277766 L48.2132678,3.55668095 L50.0877147,3.55668095 L50.0877147,4.44549723 C50.5235961,3.70298168 51.3804638,3.36711924 52.1503119,3.36711924 C53.9228441,3.36711924 54.736594,4.63505893 54.736594,6.20975822 L54.736594,10.7277766 L52.804134,10.7277766 L52.804134,6.5448341 C52.804134,5.74332631 52.4121543,5.11564898 51.4823785,5.11564898 C50.6396221,5.11564898 50.1457277,5.77242915 50.1457277,6.6022532 L50.1457277,10.7277766 Z" id="Fill-89" fill="#8CABD4"></path>
                        <g id="Group-93" transform="translate(55.869102, 3.425168)">
                            <mask id="mask-6" fill="white">
                                <use xlink:href="#path-5"></use>
                            </mask>
                            <g id="Clip-92"></g>
                            <path d="M1.7435257,7.23008785 C1.87444692,8.01665094 2.4984786,8.58533604 3.41414318,8.58533604 C4.63476796,8.58533604 5.3175966,7.9726034 5.3175966,6.58825238 L5.3175966,6.0636148 C5.02674766,6.53004671 4.35803029,6.98232048 3.32712369,6.98232048 C1.42367027,6.98232048 -4.45629324e-14,5.50987439 -4.45629324e-14,3.49863259 C-4.45629324e-14,1.60301556 1.36565727,0 3.32712369,0 C4.45994502,0 5.11376715,0.496321305 5.36071436,0.976911348 L5.36071436,0.131356035 L7.22026606,0.131356035 L7.22026606,6.53004671 C7.22026606,8.49802754 6.15956899,10.2913914 3.47215617,10.2913914 C1.51068976,10.2913914 0.203829444,9.06592609 -4.45629324e-14,7.69651976 L1.7435257,7.23008785 Z M5.34581914,3.49863259 C5.34581914,2.39115177 4.59086624,1.69032406 3.66109039,1.69032406 C2.70230805,1.69032406 1.94657119,2.39115177 1.94657119,3.49863259 C1.94657119,4.62027155 2.65840632,5.32031269 3.66109039,5.32031269 C4.64887923,5.32031269 5.34581914,4.60689997 5.34581914,3.49863259 L5.34581914,3.49863259 Z" id="Fill-91" fill="#8CABD4" mask="url(#mask-6)"></path>
                        </g>
                    </g>
                </g>
            </g>
        </g>
    </g>
</svg>