<?xml version="1.0" encoding="utf-8"?>
<!-- Generator: Adobe Illustrator 25.2.1, SVG Export Plug-In . SVG Version: 6.00 Build 0)  -->
<svg version="1.1" id="Layer_1" xmlns="http://www.w3.org/2000/svg" xmlns:xlink="http://www.w3.org/1999/xlink" x="0px" y="0px"
	 viewBox="0 0 48 48" style="enable-background:new 0 0 48 48;" xml:space="preserve">
<style type="text/css">
	.st0{fill-rule:evenodd;clip-rule:evenodd;fill:#90AFD4;}
	.st1{fill-rule:evenodd;clip-rule:evenodd;fill:#A6BFDC;}
	.st2{fill-rule:evenodd;clip-rule:evenodd;fill:#4E7EBA;}
	.st3{filter:url(#Adobe_OpacityMaskFilter);}
	.st4{fill-rule:evenodd;clip-rule:evenodd;fill:#FFFFFF;}
	.st5{mask:url(#mask-2_2_);fill-rule:evenodd;clip-rule:evenodd;fill:#7A9FCB;}
	.st6{fill-rule:evenodd;clip-rule:evenodd;fill:#648FC2;}
	.st7{fill-rule:evenodd;clip-rule:evenodd;fill:#376EB1;}
	.st8{fill-rule:evenodd;clip-rule:evenodd;fill:#215EA8;}
	.st9{filter:url(#Adobe_OpacityMaskFilter_1_);}
	.st10{mask:url(#mask-4_2_);fill-rule:evenodd;clip-rule:evenodd;fill:#DE3D3B;}
</style>
<g>
	<path id="Fill-1" class="st0" d="M28.4,12.7c2.2,1.1,4,2.9,5.1,5.1l8-3.3c-2-4.4-5.4-7.8-9.8-9.8L28.4,12.7z"/>
	<path id="Fill-3" class="st1" d="M34.3,26.8l7.9,3.3c1.6-4.5,1.6-9.4,0-13.9l-7.9,3.3C35,21.9,35,24.5,34.3,26.8"/>
	<path id="Fill-5" class="st2" d="M11.9,19.5L4,16.2c-1.6,4.5-1.6,9.4,0,13.9l7.9-3.3C11.1,24.4,11.1,21.9,11.9,19.5"/>
	<defs>
		<filter id="Adobe_OpacityMaskFilter" filterUnits="userSpaceOnUse" x="16.2" y="2.8" width="13.9" height="9.2">
			<feColorMatrix  type="matrix" values="1 0 0 0 0  0 1 0 0 0  0 0 1 0 0  0 0 0 1 0"/>
		</filter>
	</defs>
	<mask maskUnits="userSpaceOnUse" x="16.2" y="2.8" width="13.9" height="9.2" id="mask-2_2_">
		<g class="st3">
			<polygon id="path-1_2_" class="st4" points="16.2,2.8 30,2.8 30,12 16.2,12 			"/>
		</g>
	</mask>
	<path id="Fill-7" class="st5" d="M19.4,11.9c1.2-0.4,2.4-0.6,3.6-0.6c1.2,0,2.5,0.2,3.7,0.6L30,4c-4.5-1.6-9.3-1.6-13.9,0
		L19.4,11.9z"/>
	<path id="Fill-10" class="st6" d="M12.6,17.8c1.1-2.2,2.9-4,5.1-5.1l-3.3-8c-4.3,2-7.8,5.5-9.8,9.8L12.6,17.8z"/>
	<path id="Fill-12" class="st7" d="M17.7,33.7c-2.2-1.1-4-2.9-5.1-5.1l-8,3.3c2,4.4,5.4,7.8,9.8,9.8L17.7,33.7z"/>
	<path id="Fill-14" class="st8" d="M26.7,34.4c-2.4,0.8-4.9,0.8-7.3,0l-3.3,7.9c2.3,0.8,4.6,1.3,6.9,1.3c2.3,0,4.7-0.4,6.9-1.2
		L26.7,34.4z"/>
	<defs>
		<filter id="Adobe_OpacityMaskFilter_1_" filterUnits="userSpaceOnUse" x="27.2" y="27.4" width="18.1" height="17.9">
			<feColorMatrix  type="matrix" values="1 0 0 0 0  0 1 0 0 0  0 0 1 0 0  0 0 0 1 0"/>
		</filter>
	</defs>
	<mask maskUnits="userSpaceOnUse" x="27.2" y="27.4" width="18.1" height="17.9" id="mask-4_2_">
		<g class="st9">
			<polygon id="path-3_2_" class="st4" points="27.2,27.4 45.3,27.4 45.3,45.2 27.2,45.2 			"/>
		</g>
	</mask>
	<path id="Fill-16" class="st10" d="M31.2,27.4c-1.3,1.9-2,2.5-4.1,3.8l6.1,14c5.5-1.1,10-4.2,12-11.9L31.2,27.4z"/>
</g>
</svg>
