<?xml version="1.0" encoding="utf-8"?>
<!-- Generator: Adobe Illustrator 23.0.1, SVG Export Plug-In . SVG Version: 6.00 Build 0)  -->
<svg version="1.1" id="Layer_1" xmlns="http://www.w3.org/2000/svg" xmlns:xlink="http://www.w3.org/1999/xlink" x="0px" y="0px"
	 viewBox="0 0 120 36" style="enable-background:new 0 0 120 36;" xml:space="preserve">
<style type="text/css">
	.st0{display:none;}
	.st1{display:inline;fill:#006991;}
	.st2{opacity:0.5;}
	.st3{fill:#FFFFFF;}
	.st4{opacity:0.75;}
	.st5{fill:none;}
</style>
<g class="st0">
	<path class="st1" d="M51.6,3h2.8l3.4,12h-2.9l-0.6-2.4h-2.9L50.8,15H48L51.6,3z M51.9,10.6h2l-0.5-2c-0.3-1.1-0.4-1.9-0.5-2.5h0
		c-0.1,0.6-0.2,1.4-0.5,2.5L51.9,10.6z"/>
	<path class="st1" d="M58.6,6h2.1l0.2,0.9c0.7-0.6,1.4-1.1,2.6-1.1c1.6,0,2.4,0.7,2.4,2.5V15h-2.6V8.8c0-0.9-0.3-1.1-0.8-1.1
		c-0.6,0-0.9,0.2-1.3,0.5V15h-2.5V6z"/>
	<path class="st1" d="M66.9,16.1c0-0.8,0.5-1.4,1.2-1.7c-0.5-0.3-0.8-0.9-0.8-1.5c0-0.9,0.4-1.4,1-1.8c-0.8-0.5-1.1-1.3-1.1-2.4
		c0-1.9,1.1-3,3.6-3c0.6,0,1.1,0.1,1.5,0.2h2.8v1.3l-0.9,0.4c0.2,0.4,0.3,0.8,0.3,1.3c0,1.9-1,2.8-3.6,2.8c-0.4,0-0.7,0-1-0.1
		c-0.1,0.2-0.3,0.4-0.3,0.7c0,0.2,0.2,0.4,0.6,0.4h1.7c1.8,0,3.2,0.7,3.2,2.6c0,2.1-1.4,3.1-4.4,3.1C68.1,18.4,66.9,17.6,66.9,16.1
		 M69.1,15.7c0,0.7,0.2,1.1,1.7,1.1c1.2,0,1.8-0.4,1.8-1.1c0-0.7-0.4-0.9-1.6-0.9h-1.7C69.2,15,69.1,15.3,69.1,15.7 M72.1,8.8
		c0-0.9-0.2-1.3-1.2-1.3c-0.9,0-1.2,0.4-1.2,1.3c0,0.8,0.2,1.3,1.2,1.3C71.8,10.1,72.1,9.7,72.1,8.8"/>
	<path class="st1" d="M75.6,10.5c0-3.4,1.4-4.7,3.9-4.7c2.8,0,3.9,1.5,3.9,4.8v0.7h-5c0.1,1.6,0.5,2,1.7,2c0.9,0,1.5-0.4,2-0.8
		l1.1,1.7c-0.7,0.6-1.7,1.1-3.1,1.1C77,15.2,75.6,13.8,75.6,10.5 M78.3,9.6h2.4c0-1.4-0.2-2-1.2-2C78.7,7.6,78.4,8,78.3,9.6"/>
	<path class="st1" d="M84.5,12.4V3H87v9.5c0,0.7,0.1,0.8,0.7,0.8c0.1,0,0.2,0,0.2,0l0.3,1.6c-0.3,0.1-0.8,0.3-1.5,0.3
		C84.8,15.2,84.5,14.3,84.5,12.4"/>
	<path class="st1" d="M92.6,9c0-4.4,1.7-6.2,5-6.2c3.3,0,4.9,1.9,4.9,6.2c0,4.4-1.6,6.2-4.9,6.2C94.3,15.2,92.6,13.4,92.6,9 M99.6,9
		c0-3.1-0.5-4.1-2-4.1c-1.5,0-2,1-2,4.1c0,3.1,0.5,4.2,2,4.2C99.1,13.1,99.6,12.1,99.6,9"/>
	<path class="st1" d="M103.4,12.3c0-2.1,1.3-2.9,4-2.9h0.6V9.1c0-0.9-0.2-1.3-1-1.3c-0.9,0-1.7,0.4-2.4,0.8l-0.9-1.7
		c1-0.7,2.1-1.1,3.6-1.1c2.3,0,3.3,0.8,3.3,2.9V15h-2c0,0-0.1-0.4-0.3-0.7c-0.5,0.5-1.1,0.9-2.1,0.9
		C104.2,15.2,103.4,14.1,103.4,12.3 M108,13v-2.1h-0.1c-1.6,0-1.9,0.4-1.9,1.4c0,0.9,0.2,1.2,0.9,1.2C107.4,13.5,107.7,13.3,108,13"
		/>
	<path class="st1" d="M112.1,3h2.5v12h-2.5V3z M114.7,9.9l2-3.9h2.8l-2.3,3.7L120,15h-2.8L114.7,9.9z"/>
</g>
<g>
	<g class="st2">
		<path class="st3" d="M20,27.3L35.3,13c-0.8-2.8-2.2-5.2-4.1-7.3L19.7,17.9L20,27.3z"/>
		<path class="st3" d="M20.1,31.7l0.1,4.1c5.5-0.7,10.1-3.8,12.9-8.2l-9.7,0.5L20.1,31.7z"/>
		<path class="st3" d="M21.6,0.4C20.8,0.2,20,0.1,19.1,0l0.1,2.6L21.6,0.4z"/>
		<path class="st3" d="M16.6,8.4l-6.3-6.6C7.6,3,5.3,4.9,3.6,7.2l12.7,12.1L16.6,8.4z"/>
		<path class="st3" d="M0.1,19.3c0.3,4.5,2.4,8.6,5.4,11.6l5.1-0.4L0.1,19.3z"/>
	</g>
	<g class="st4">
		<path class="st3" d="M35.7,15L25.4,26l8.4,0.4C35.2,23.9,36,21,36,18C36,17,35.9,16,35.7,15z"/>
		<path class="st3" d="M19.6,15l6.9-6.5l0.2-6.2c-1.3-0.7-2.8-1.3-4.3-1.7L19.2,4L19.6,15z"/>
		<path class="st3" d="M16.2,22.2L8.4,14l-7.9-0.2c-0.2,1-0.4,2-0.5,3l15.8,14.9L16.2,22.2z"/>
		<path class="st3" d="M16.9,0c-2.1,0.1-4.1,0.6-6,1.4l5.8,5.5L16.9,0z"/>
	</g>
	<g>
		<path class="st3" d="M30.3,4.9c-0.9-0.9-1.9-1.6-3-2.2l0.2,4.9L30.3,4.9z"/>
		<path class="st3" d="M6.9,32.2c2.4,1.9,5.4,3.2,8.6,3.6l-3.1-3.3L6.9,32.2z"/>
		<path class="st3" d="M2.9,8.2c-1,1.5-1.7,3.2-2.2,5L7.4,13L2.9,8.2z"/>
	</g>
	<circle class="st5" cx="18" cy="18" r="18"/>
</g>
<g>
	<path class="st3" d="M48,30.1c0-1.9,0.7-3.1,2.4-3.1c0.6,0,1.1,0.2,1.5,0.5L51.5,28c-0.3-0.2-0.6-0.4-1.1-0.4
		c-1.2,0-1.5,0.8-1.5,2.4c0,1.7,0.3,2.4,1.5,2.4c0.5,0,0.8-0.2,1.2-0.4l0.4,0.6c-0.4,0.3-0.9,0.5-1.6,0.5C48.7,33.2,48,32.1,48,30.1
		"/>
	<path class="st3" d="M54.6,27.1h0.9l1.9,6h-0.9l-0.5-1.7H54l-0.5,1.7h-0.8L54.6,27.1z M54.2,30.7h1.5l-0.3-1
		c-0.3-0.9-0.3-1.3-0.4-1.7h0c-0.1,0.5-0.2,0.8-0.5,1.7L54.2,30.7z"/>
	<path class="st3" d="M58.5,27.1h1.8c1.3,0,1.9,0.6,1.9,1.8c0,1.2-0.6,1.8-1.8,1.8h-1.1v2.3h-0.8V27.1z M60.3,30c0.7,0,1-0.3,1-1.1
		c0-0.8-0.3-1.1-1.1-1.1h-0.9V30H60.3z"/>
	<rect x="63.6" y="27.1" class="st3" width="0.8" height="6"/>
	<polygon class="st3" points="67.1,27.8 65.7,27.8 65.7,27.1 69.4,27.1 69.4,27.8 68,27.8 68,33.1 67.1,33.1 	"/>
	<path class="st3" d="M71.5,27.1h0.9l1.9,6h-0.9l-0.5-1.7H71l-0.5,1.7h-0.8L71.5,27.1z M71.2,30.7h1.5l-0.3-1
		c-0.3-0.9-0.3-1.3-0.4-1.7h0c-0.1,0.5-0.2,0.8-0.5,1.7L71.2,30.7z"/>
	<polygon class="st3" points="75.4,27.1 76.3,27.1 76.3,32.4 78.4,32.4 78.4,33.1 75.4,33.1 	"/>
	<path class="st3" d="M84.1,27.1H85l1.9,6H86l-0.5-1.7h-1.9L83,33.1h-0.8L84.1,27.1z M83.8,30.7h1.5l-0.3-1
		c-0.3-0.9-0.3-1.3-0.4-1.7h0c-0.1,0.5-0.2,0.8-0.5,1.7L83.8,30.7z"/>
	<path class="st3" d="M87.9,27.1h1.6c1.7,0,2.5,0.7,2.5,3c0,2.3-0.8,2.9-2.4,2.9h-1.6V27.1z M89.6,32.4c1.2,0,1.5-0.6,1.5-2.3
		c0-1.7-0.3-2.3-1.5-2.3h-0.8v4.6H89.6z"/>
	<path class="st3" d="M92.7,27.1h0.9l1,3.5c0.2,0.6,0.3,1,0.3,1.4h0c0.1-0.4,0.2-0.7,0.4-1.4l1-3.5h0.8l-1.8,6h-0.8L92.7,27.1z"/>
	<rect x="98.4" y="27.1" class="st3" width="0.8" height="6"/>
	<path class="st3" d="M100.5,32.6l0.4-0.6c0.5,0.4,0.8,0.5,1.4,0.5c0.8,0,1.1-0.4,1.1-1c0-0.7-0.4-0.9-1.2-1.2
		c-1-0.4-1.5-0.8-1.5-1.8c0-1,0.7-1.5,1.7-1.5c0.7,0,1.1,0.1,1.5,0.4l-0.3,0.6c-0.4-0.2-0.7-0.4-1.1-0.4c-0.6,0-1,0.2-1,0.8
		c0,0.6,0.2,0.8,1,1.1c1,0.4,1.7,0.7,1.7,1.9c0,0.9-0.5,1.7-1.9,1.7C101.7,33.2,101,32.9,100.5,32.6"/>
	<path class="st3" d="M105.5,30.1c0-2,0.8-3.1,2.3-3.1c1.5,0,2.3,1.1,2.3,3.1c0,2.1-0.7,3.1-2.3,3.1
		C106.3,33.2,105.5,32.2,105.5,30.1 M109.2,30.1c0-1.7-0.4-2.5-1.4-2.5c-1,0-1.4,0.8-1.4,2.4c0,1.7,0.4,2.5,1.4,2.5
		C108.8,32.5,109.2,31.8,109.2,30.1"/>
	<path class="st3" d="M111.6,27.1h1.7c1.2,0,1.9,0.5,1.9,1.7c0,0.9-0.4,1.4-1.2,1.6c0.3,0.1,0.6,0.4,0.8,1l0.6,1.7h-0.9l-0.6-1.7
		c-0.3-0.7-0.5-0.9-0.9-0.9h-0.6v2.5h-0.8V27.1z M113.2,29.9c0.8,0,1.1-0.3,1.1-1.1c0-0.7-0.3-1-1.1-1h-0.9v2.1H113.2z"/>
	<path class="st3" d="M116.2,32.6l0.4-0.6c0.5,0.4,0.8,0.5,1.4,0.5c0.8,0,1.1-0.4,1.1-1c0-0.7-0.4-0.9-1.2-1.2
		c-1-0.4-1.5-0.8-1.5-1.8c0-1,0.7-1.5,1.7-1.5c0.7,0,1.1,0.1,1.5,0.4l-0.3,0.6c-0.4-0.2-0.7-0.4-1.1-0.4c-0.6,0-1,0.2-1,0.8
		c0,0.6,0.2,0.8,1,1.1c1,0.4,1.7,0.7,1.7,1.9c0,0.9-0.5,1.7-1.9,1.7C117.3,33.2,116.6,32.9,116.2,32.6"/>
</g>
<rect x="48" y="20.7" class="st3" width="72" height="0.8"/>
<g>
	<path class="st3" d="M51.6,3.1h2.8l3.4,12h-2.9l-0.6-2.4h-2.9L50.8,15H48L51.6,3.1z M51.9,10.7h2l-0.5-2c-0.3-1.1-0.4-1.9-0.5-2.5
		h0c-0.1,0.6-0.2,1.4-0.5,2.5L51.9,10.7z"/>
	<path class="st3" d="M58.6,6.1h2.1l0.2,0.9c0.7-0.6,1.4-1.1,2.6-1.1c1.6,0,2.4,0.7,2.4,2.5V15h-2.6V8.9c0-0.9-0.3-1.1-0.8-1.1
		c-0.6,0-0.9,0.2-1.3,0.5V15h-2.5V6.1z"/>
	<path class="st3" d="M66.9,16.2c0-0.8,0.5-1.4,1.2-1.7c-0.5-0.3-0.8-0.9-0.8-1.5c0-0.9,0.4-1.4,1-1.8c-0.8-0.5-1.1-1.3-1.1-2.4
		c0-1.9,1.1-3,3.6-3c0.6,0,1.1,0.1,1.5,0.2h2.8v1.3l-0.9,0.4c0.2,0.4,0.3,0.8,0.3,1.3c0,1.9-1,2.8-3.6,2.8c-0.4,0-0.7,0-1-0.1
		c-0.1,0.2-0.3,0.4-0.3,0.7c0,0.2,0.2,0.4,0.6,0.4h1.7c1.8,0,3.2,0.7,3.2,2.6c0,2.1-1.4,3.1-4.4,3.1C68.1,18.5,66.9,17.6,66.9,16.2
		 M69.1,15.7c0,0.7,0.2,1.1,1.7,1.1c1.2,0,1.8-0.4,1.8-1.1c0-0.7-0.4-0.9-1.6-0.9h-1.7C69.2,15.1,69.1,15.4,69.1,15.7 M72.1,8.9
		c0-0.9-0.2-1.3-1.2-1.3c-0.9,0-1.2,0.4-1.2,1.3c0,0.8,0.2,1.3,1.2,1.3C71.8,10.2,72.1,9.7,72.1,8.9"/>
	<path class="st3" d="M75.6,10.5c0-3.4,1.4-4.7,3.9-4.7c2.8,0,3.9,1.5,3.9,4.8v0.7h-5c0.1,1.6,0.5,2,1.7,2c0.9,0,1.5-0.4,2-0.8
		l1.1,1.7c-0.7,0.6-1.7,1.1-3.1,1.1C77,15.3,75.6,13.9,75.6,10.5 M78.3,9.6h2.4c0-1.4-0.2-2-1.2-2C78.7,7.6,78.4,8,78.3,9.6"/>
	<path class="st3" d="M84.5,12.4V3.1H87v9.5c0,0.7,0.1,0.8,0.7,0.8c0.1,0,0.2,0,0.2,0l0.3,1.6c-0.3,0.1-0.8,0.3-1.5,0.3
		C84.8,15.2,84.5,14.4,84.5,12.4"/>
	<path class="st3" d="M92.6,9.1c0-4.4,1.7-6.2,5-6.2c3.3,0,4.9,1.9,4.9,6.2c0,4.4-1.6,6.2-4.9,6.2C94.3,15.3,92.6,13.4,92.6,9.1
		 M99.6,9c0-3.1-0.5-4.1-2-4.1c-1.5,0-2,1-2,4.1c0,3.1,0.5,4.2,2,4.2C99.1,13.2,99.6,12.2,99.6,9"/>
	<path class="st3" d="M103.4,12.4c0-2.1,1.3-2.9,4-2.9h0.6V9.1c0-0.9-0.2-1.3-1-1.3c-0.9,0-1.7,0.4-2.4,0.8l-0.9-1.7
		c1-0.7,2.1-1.1,3.6-1.1c2.3,0,3.3,0.8,3.3,2.9V15h-2c0,0-0.1-0.4-0.3-0.7c-0.5,0.5-1.1,0.9-2.1,0.9
		C104.2,15.3,103.4,14.2,103.4,12.4 M108,13.1V11h-0.1c-1.6,0-1.9,0.4-1.9,1.4c0,0.9,0.2,1.2,0.9,1.2
		C107.4,13.6,107.7,13.3,108,13.1"/>
	<path class="st3" d="M112.1,3.1h2.5v12h-2.5V3.1z M114.7,9.9l2-3.9h2.8l-2.3,3.7L120,15h-2.8L114.7,9.9z"/>
</g>
</svg>
