<?xml version="1.0" encoding="utf-8"?>
<!-- Generator: Adobe Illustrator 25.2.1, SVG Export Plug-In . SVG Version: 6.00 Build 0)  -->
<svg version="1.1" id="Layer_1" xmlns="http://www.w3.org/2000/svg" xmlns:xlink="http://www.w3.org/1999/xlink" x="0px" y="0px"
	 viewBox="0 0 89 86" style="enable-background:new 0 0 89 86;" xml:space="preserve">
<style type="text/css">
	.st0{fill-rule:evenodd;clip-rule:evenodd;fill:#1C3052;}
	.st1{fill-rule:evenodd;clip-rule:evenodd;fill:#FFFFFF;}
	.st2{fill-rule:evenodd;clip-rule:evenodd;fill:#215EAB;}
	.st3{fill-rule:evenodd;clip-rule:evenodd;fill:#DE3D3B;}
</style>
<g id="Group-29" transform="translate(1103.000065, 312.324130)">
	<polygon id="Fill-1" class="st0" points="-1099.8,-235.2 -1022.8,-235.2 -1022.8,-282.2 -1099.8,-282.2 	"/>
	<g id="Group-28">
		<path id="Fill-2" class="st0" d="M-1096.1-226.7h68.4c7.3,0,13.2-5.9,13.2-13.2v-53.5c0-0.8-0.6-1.4-1.4-1.4s-1.4,0.6-1.4,1.4
			v53.5c0,5.7-4.6,10.3-10.3,10.3h-68.4c-0.8,0-1.4,0.6-1.4,1.4C-1097.6-227.3-1096.9-226.7-1096.1-226.7"/>
		<path id="Fill-4" class="st0" d="M-1085.8-308.4v15.1c0,2,1.6,3.6,3.6,3.6c2,0,3.6-1.6,3.6-3.6v-15.1c0-2-1.6-3.6-3.6-3.6
			C-1084.2-312-1085.8-310.4-1085.8-308.4"/>
		<path id="Fill-6" class="st1" d="M-1025-239.9c0,1.5-1.2,2.8-2.8,2.8h-68.4c-1.5,0-2.8-1.2-2.8-2.8v-37.2c0-1.5,1.2-2.8,2.8-2.8
			h68.4c1.5,0,2.8,1.2,2.8,2.8V-239.9z M-1027.7-300.3h-5.8v6.9c0,4-3.3,7.3-7.3,7.3c-4,0-7.3-3.3-7.3-7.3v-6.9h-26.9v6.9
			c0,4-3.3,7.3-7.3,7.3c-4,0-7.3-3.3-7.3-7.3v-6.9h-6.6c-3.8,0-6.9,3.1-6.9,6.9v53.5c0,3.8,3.1,6.9,6.9,6.9h68.4
			c3.8,0,6.9-3.1,6.9-6.9v-53.5C-1020.9-297.2-1024-300.3-1027.7-300.3L-1027.7-300.3z"/>
		<path id="Fill-8" class="st0" d="M-1044.4-308.4v15.1c0,2,1.6,3.6,3.6,3.6c2,0,3.6-1.6,3.6-3.6v-15.1c0-2-1.6-3.6-3.6-3.6
			C-1042.8-312-1044.4-310.4-1044.4-308.4"/>
		<path id="Fill-10" class="st2" d="M-1089.3-266.6h10.7c1.4,0,2.5-1.6,2.5-3.6c0-2-1.1-3.6-2.5-3.6h-10.7c-1.4,0-2.5,1.6-2.5,3.6
			C-1091.8-268.2-1090.7-266.6-1089.3-266.6"/>
		<path id="Fill-12" class="st2" d="M-1067.5-266.6h10.7c1.4,0,2.5-1.6,2.5-3.6c0-2-1.1-3.6-2.5-3.6h-10.7c-1.4,0-2.5,1.6-2.5,3.6
			C-1070.1-268.2-1068.9-266.6-1067.5-266.6"/>
		<path id="Fill-14" class="st2" d="M-1045.8-266.6h10.7c1.4,0,2.5-1.6,2.5-3.6c0-2-1.1-3.6-2.5-3.6h-10.7c-1.4,0-2.5,1.6-2.5,3.6
			C-1048.3-268.2-1047.2-266.6-1045.8-266.6"/>
		<path id="Fill-16" class="st2" d="M-1089.3-254.6h10.7c1.4,0,2.5-1.6,2.5-3.6c0-2-1.1-3.6-2.5-3.6h-10.7c-1.4,0-2.5,1.6-2.5,3.6
			C-1091.8-256.2-1090.7-254.6-1089.3-254.6"/>
		<path id="Fill-18" class="st2" d="M-1067.5-254.6h10.7c1.4,0,2.5-1.6,2.5-3.6c0-2-1.1-3.6-2.5-3.6h-10.7c-1.4,0-2.5,1.6-2.5,3.6
			C-1070.1-256.2-1068.9-254.6-1067.5-254.6"/>
		<path id="Fill-20" class="st3" d="M-1045.8-254.6h10.7c1.4,0,2.5-1.6,2.5-3.6c0-2-1.1-3.6-2.5-3.6h-10.7c-1.4,0-2.5,1.6-2.5,3.6
			C-1048.3-256.2-1047.2-254.6-1045.8-254.6"/>
		<path id="Fill-22" class="st2" d="M-1089.3-242.6h10.7c1.4,0,2.5-1.6,2.5-3.6c0-2-1.1-3.6-2.5-3.6h-10.7c-1.4,0-2.5,1.6-2.5,3.6
			C-1091.8-244.2-1090.7-242.6-1089.3-242.6"/>
		<path id="Fill-24" class="st2" d="M-1067.5-242.6h10.7c1.4,0,2.5-1.6,2.5-3.6c0-2-1.1-3.6-2.5-3.6h-10.7c-1.4,0-2.5,1.6-2.5,3.6
			C-1070.1-244.2-1068.9-242.6-1067.5-242.6"/>
		<path id="Fill-26" class="st2" d="M-1045.8-242.6h10.7c1.4,0,2.5-1.6,2.5-3.6c0-2-1.1-3.6-2.5-3.6h-10.7c-1.4,0-2.5,1.6-2.5,3.6
			C-1048.3-244.2-1047.2-242.6-1045.8-242.6"/>
	</g>
</g>
</svg>
