<?xml version="1.0" encoding="UTF-8"?>
<svg width="57px" height="51px" viewBox="0 0 57 51" version="1.1" xmlns="http://www.w3.org/2000/svg" xmlns:xlink="http://www.w3.org/1999/xlink">
    <title>Group 9</title>
    <defs>
        <polygon id="path-1" points="0.0641025641 49.5940171 55.0641026 49.5940171 55.0641026 -0.405982906 0.0641025641 -0.405982906"></polygon>
    </defs>
    <g id="Website" stroke="none" stroke-width="1" fill="none" fill-rule="evenodd">
        <g id="QES_EDGAREdge_3b1" transform="translate(-442.000000, -1421.000000)">
            <g id="Group-9" transform="translate(442.935897, 1421.405983)">
                <path d="M26.836038,12.7241925 L21.0877052,21.2210285 C20.997716,21.3548198 21.1813524,21.4994591 21.3635256,21.4379874 L24.5577755,20.3625942 L24.5577755,24.2635163 C24.5577755,24.4457618 24.7553127,24.5940171 24.9989419,24.5940171 L27.0643032,24.5940171 L29.1296645,24.5940171 C29.3732937,24.5940171 29.5700993,24.4457618 29.5700993,24.2635163 L29.5700993,20.3625942 L32.7650808,21.4379874 C32.947254,21.4994591 33.1308904,21.3548198 33.0401696,21.2210285 L27.2925684,12.7241925 C27.2413551,12.6504264 27.1586821,12.6092042 27.0643032,12.5940171 C26.9699243,12.6092042 26.8872513,12.6504264 26.836038,12.7241925" id="Fill-1" fill="#FEFEFE"></path>
                <mask id="mask-2" fill="white">
                    <use xlink:href="#path-1"></use>
                </mask>
                <g id="Clip-4"></g>
                <polygon id="Fill-3" fill="#FEFEFE" mask="url(#mask-2)" points="28.0641026 47.5940171 36.0641026 47.5940171 36.0641026 46.5940171 28.0641026 46.5940171"></polygon>
                <polygon id="Fill-5" fill="#FEFEFE" mask="url(#mask-2)" points="19.0641026 42.5940171 35.0641026 42.5940171 35.0641026 41.5940171 19.0641026 41.5940171"></polygon>
                <polygon id="Fill-6" fill="#FEFEFE" mask="url(#mask-2)" points="20.0641026 47.5940171 26.0641026 47.5940171 26.0641026 46.5940171 20.0641026 46.5940171"></polygon>
                <path d="M34.4415278,28.5940171 L23.7564321,28.5940171 C23.0771751,28.5940171 22.4442147,28.8520095 21.976909,29.3094581 L13.9835228,37.131613 C13.393242,37.7061338 13.0641026,38.5039589 13.0641026,39.3241867 L13.0641026,49.5940171 L15.3174418,49.5940171 L15.3174418,39.3241867 C15.3174418,39.2201226 15.3449303,39.1153358 15.3810995,39.017053 L18.4272668,38.9245515 C18.6327077,38.9245515 18.8359785,38.9064848 19.0356323,38.8819141 C20.8151553,38.6766765 22.3827271,37.5124589 23.1046637,35.8734486 C23.301424,35.4369573 23.4055912,34.9737273 23.4699723,34.5039933 L23.4699723,30.9976098 L23.5654589,30.914503 C23.614649,30.8660843 23.6761366,30.8472949 23.7564321,30.8472949 L34.4415278,30.8472949 C36.8482243,30.8472949 38.8085932,32.8028336 38.8085932,35.2100397 L38.8085932,49.5940171 L41.0641026,49.5940171 L41.0641026,35.2100397 C41.0641026,31.5656266 38.0924437,28.5940171 34.4415278,28.5940171" id="Fill-7" fill="#FEFEFE" mask="url(#mask-2)"></path>
                <path d="M54.5984211,21.7994086 C53.3355977,17.4210907 49.6888281,14.3725172 45.3298848,13.9267845 C45.1852474,10.960202 44.3394494,8.35661596 42.804238,6.16596624 C40.6251334,2.95192011 37.5862811,0.840279879 33.7655061,-0.104107052 L33.691352,-0.121995991 C32.7405634,-0.315792836 31.7993195,-0.405982906 30.731059,-0.405982906 C27.1929509,-0.405982906 22.452958,1.0698546 19.1703514,5.11051881 C18.2291074,4.84442084 17.2562929,4.71174454 16.2621866,4.71174454 C10.9025291,4.71174454 6.29689476,8.72333922 5.37400581,14.0095208 C5.03774237,14.2361141 4.70147893,14.4984852 4.3549367,14.7996157 C2.78081266,16.1032721 1.55690185,17.7840871 0.810220808,19.6840415 C-0.360827627,22.7512493 -0.141301933,26.3245649 1.38363073,29.2300269 C3.41736375,33.1626121 6.65812099,35.3033218 11.0200011,35.5902902 L12.6822291,35.5902902 L16.4251789,31.8619371 L11.203551,31.8619371 C8.15441987,31.643543 6.06709027,30.2534233 4.63466677,27.4843645 C3.59797686,25.5128543 3.44893434,23.0993382 4.23085696,21.0525454 C4.74406251,19.7526158 5.5927973,18.5853625 6.68969157,17.6804803 L6.72860416,17.6514108 C7.15297155,17.2779792 7.52814757,17.0193349 7.89965259,16.8292649 L8.81887055,16.3626618 L8.90770871,15.320631 C9.23663015,11.4633285 12.4663744,8.44307917 16.2621866,8.44307917 C17.2526219,8.44307917 18.2114866,8.64432974 19.1130838,9.03565029 L20.5146709,9.64611035 L21.3634057,8.36406968 C23.8251771,4.65062399 27.8155522,3.32907859 30.731059,3.32907859 C31.5445522,3.32907859 32.2273579,3.39019913 32.9343921,3.53032916 C35.8741275,4.26973866 38.1134364,5.82533102 39.7793354,8.29251393 L39.8006272,8.32456494 C41.1912013,10.2960752 41.7961819,12.6954292 41.6544813,15.6478496 L41.5627064,17.6051977 L44.2227117,17.6051977 C47.4671399,17.6051977 50.1587158,19.6698794 51.074997,22.8623098 L51.0852758,22.8951062 C51.7225611,24.9672417 51.3297643,27.1429839 50.0067365,28.8670305 L49.9604819,28.928151 C48.6837087,30.749096 46.7806633,31.7866545 44.6015587,31.8619371 L43.5120064,31.8619371 C43.9892362,32.9867042 44.2513455,34.2255132 44.2513455,35.5254428 L44.2513455,35.5940171 L44.6830549,35.5940171 C48.0361446,35.4933918 50.9656012,33.9094753 52.9317879,31.1299813 C54.9838759,28.4324783 55.5888564,25.0350706 54.5984211,21.7994086" id="Fill-8" fill="#FEFEFE" mask="url(#mask-2)"></path>
            </g>
        </g>
    </g>
</svg>