<?xml version="1.0" encoding="UTF-8"?>
<svg width="53px" height="52px" viewBox="0 0 53 52" version="1.1" xmlns="http://www.w3.org/2000/svg" xmlns:xlink="http://www.w3.org/1999/xlink">
    <title>Group 9</title>
    <defs>
        <polygon id="path-1" points="5.70488254e-15 -5.76022825e-15 30 -5.76022825e-15 30 31 5.70488254e-15 31"></polygon>
        <polygon id="path-3" points="0 0 44 0 44 39 0 39"></polygon>
    </defs>
    <g id="Website" stroke="none" stroke-width="1" fill="none" fill-rule="evenodd">
        <g id="QES_EDGAREdge_3b1" transform="translate(-1152.000000, -1773.000000)">
            <g id="Group-9" transform="translate(1152.000000, 1773.000000)">
                <path d="M43.7040975,31.5908884 C43.2666333,30.9805981 42.3027004,30.8062294 41.6897466,31.2421511 L35.2931957,35.8621424 L33.5408195,34.1184557 C33.0151906,33.5953497 32.0512578,33.5081654 31.438304,34.1184557 C31.1754895,34.3800087 31,34.728746 31,35.1646677 C31,35.513405 31.1754895,35.9493267 31.438304,36.2108797 L33.4534946,38.3025253 C33.8909589,38.738447 34.5047524,39 35.1177062,39 C35.6433351,39 36.081639,38.8256313 36.5191033,38.5640783 L43.3539582,33.5953497 C43.7040975,33.3345751 43.8795871,32.9858378 43.966912,32.6371004 C44.0550766,32.2883631 43.966912,31.8524414 43.7040975,31.5908884" id="Fill-1" fill="#FEFEFE"></path>
                <g id="Group-5" transform="translate(23.000000, 21.000000)">
                    <mask id="mask-2" fill="white">
                        <use xlink:href="#path-1"></use>
                    </mask>
                    <g id="Clip-4"></g>
                    <path d="M27.3196292,7.03508153 C26.3979105,15.8406883 22.1249255,22.9211679 14.920586,27.7317434 C7.79894422,22.9211679 3.52595916,15.7498921 2.60504337,6.94428536 L2.60504337,6.85348919 C4.69898268,6.21791603 11.4015154,3.76723022 13.4954547,3.04086089 C14.4179763,2.67767622 15.5066963,2.67767622 16.5119156,3.04086089 C18.6058549,3.76723022 25.3083877,6.21791603 27.4031299,6.85348919 C27.3196292,6.94428536 27.3196292,6.94428536 27.3196292,7.03508153 M28.3248486,4.31200722 C27.151825,3.94882255 21.8736206,2.04291374 17.266633,0.408582748 C15.7580011,-0.136194249 14.0823679,-0.136194249 12.6580396,0.408582748 C8.05024905,2.04291374 2.68854402,3.94882255 1.59982404,4.31200722 C0.593801813,4.58439572 -0.0758091479,5.58234287 0.00688860865,6.58110069 C0.00688860865,6.85348919 0.0911921469,7.21667386 0.0911921469,7.39826619 C1.17991213,17.2926163 6.03981038,25.2810575 14.2501721,30.5456138 C14.2501721,30.5456138 14.3336728,30.5456138 14.4179763,30.6372207 L15.0040866,31.0004053 L15.5909998,30.6372207 C15.6736976,30.6372207 15.6736976,30.5456138 15.6736976,30.5456138 C23.8848622,25.2810575 28.8274582,17.2926163 29.9161782,7.39826619 C29.9161782,7.21667386 30.0004817,6.94428536 30.0004817,6.67189686 C30.0004817,5.49235738 29.3300679,4.58439572 28.3248486,4.31200722" id="Fill-3" fill="#FEFEFE" mask="url(#mask-2)"></path>
                </g>
                <g id="Group-8">
                    <mask id="mask-4" fill="white">
                        <use xlink:href="#path-3"></use>
                    </mask>
                    <g id="Clip-7"></g>
                    <path d="M15.9845468,7.48587391 C15.039086,7.48587391 14.1801003,6.56148816 14.1801003,5.54466383 C14.1801003,4.43622627 14.9526109,3.60427909 15.9845468,3.60427909 C16.929184,3.60427909 17.7881698,4.52866485 17.7881698,5.54466383 C17.7881698,6.46904958 16.929184,7.48587391 15.9845468,7.48587391 L15.9845468,7.48587391 Z M10.3117819,7.48587391 C9.36714471,7.48587391 8.50815898,6.56148816 8.59298691,5.4530506 C8.59298691,4.43622627 9.36714471,3.51184052 10.3117819,3.51184052 C11.3437178,3.51184052 12.1170521,4.3437877 12.1170521,5.4530506 C12.1170521,6.65392673 11.3437178,7.48587391 10.3117819,7.48587391 L10.3117819,7.48587391 Z M4.72631575,7.48587391 C3.78167851,7.48587391 2.92186921,6.56148816 2.92186921,5.54466383 C2.92186921,4.43622627 3.78167851,3.60427909 4.72631575,3.60427909 C5.67177656,3.60427909 6.53076229,4.52866485 6.53076229,5.54466383 C6.61723736,6.46904958 5.67177656,7.48587391 4.72631575,7.48587391 L4.72631575,7.48587391 Z M44,4.99085772 C44,2.31013904 41.9369518,0 39.4448225,0 L4.55418917,0 C2.06288348,0.0924385753 -0.000164714426,2.31013904 -0.000164714426,4.99085772 L-0.000164714426,34.1024062 C-0.000164714426,36.5049838 1.71863032,38.6302457 3.86733002,38.9075614 C4.46936124,39 15.2112126,39 22.6876004,39 C22.3433472,38.0756142 21.9999176,37.1520538 21.6564881,36.2276681 L5.84390313,36.2276681 C3.60955194,36.2276681 2.49196456,35.0259666 2.49196456,32.623389 L2.49196456,10.7203987 L2.49196456,9.9808901 L29.9053865,9.9808901 C30.7651958,9.9808901 30.7651958,9.9808901 30.7651958,9.05650435 L30.7651958,6.93124246 C30.7651958,6.37661101 30.9364988,6.19173386 31.4528786,6.19173386 L38.4993617,6.19173386 C39.0149179,6.19173386 39.1870445,6.37661101 39.1870445,6.93124246 L39.1870445,9.33382007 C39.1870445,9.79601295 39.272696,9.9808901 39.7026006,9.9808901 L41.4213957,9.9808901 L41.4213957,18.5760269 L41.5070472,18.5760269 C42.3668565,18.8533426 43.2258422,19.2230969 44,19.5004127 L44,4.99085772 Z" id="Fill-6" fill="#FEFEFE" mask="url(#mask-4)"></path>
                </g>
            </g>
        </g>
    </g>
</svg>