<?xml version="1.0" encoding="UTF-8"?>
<svg width="43px" height="51px" viewBox="0 0 43 51" version="1.1" xmlns="http://www.w3.org/2000/svg" xmlns:xlink="http://www.w3.org/1999/xlink">
    <title>Group 6</title>
    <defs>
        <polygon id="path-1" points="0 0 43 0 43 51 0 51"></polygon>
    </defs>
    <g id="Website" stroke="none" stroke-width="1" fill="none" fill-rule="evenodd">
        <g id="QES_EDGAREdge_3b1" transform="translate(-713.000000, -1776.000000)">
            <g id="Group-6" transform="translate(713.000000, 1776.000000)">
                <g id="Group-3">
                    <mask id="mask-2" fill="white">
                        <use xlink:href="#path-1"></use>
                    </mask>
                    <g id="Clip-2"></g>
                    <path d="M38.832099,43.7492424 C38.832099,45.6229977 37.6902054,46.7633561 35.8139277,46.7633561 L7.26051845,46.7633561 L7.26051845,47.9037146 L7.26051845,46.7633561 C6.36313054,46.7633561 5.62874643,46.5191791 5.05823315,45.9494329 C4.56835473,45.460213 4.2414801,44.6454238 4.2414801,43.7492424 L4.2414801,18.4119837 L4.2414801,7.08805957 C4.2414801,5.2956966 5.38424074,4.15447225 7.09664761,4.15447225 L24.3108887,4.15447225 L24.3108887,12.7907178 C24.3108887,16.1312668 26.4316721,18.1678067 29.776718,18.1678067 L38.832099,18.1678067 L38.832099,37.231795 L38.832099,43.7492424 Z M38.5875933,13.5241146 C38.74973,13.6868993 38.832099,13.7682916 38.832099,13.9310763 L29.776718,13.9310763 C28.7978282,13.9310763 28.6339574,13.7682916 28.6339574,12.7907178 L28.6339574,4.23673045 C29.0423339,4.23673045 29.2868396,4.39951511 29.6128472,4.72508442 C32.5503836,7.65780587 35.5685549,10.5913932 38.5875933,13.5241146 L38.5875933,13.5241146 Z M41.5233957,10.509135 C38.5052244,7.57641354 35.5685549,4.64369209 32.5503836,1.71097065 C31.407623,0.570612174 30.0212237,0 28.3894517,0 L7.09664761,0 C3.0180846,0 -8.67041458e-05,3.0955061 -8.67041458e-05,7.08805957 L-8.67041458e-05,18.4119837 L-8.67041458e-05,43.7492424 C-8.67041458e-05,45.7857823 0.734297409,47.5781453 2.0391948,48.9626808 C3.34409219,50.2666898 5.2203699,51.0000866 7.17901655,51.0000866 L35.7315587,51.0000866 C39.8924907,51.0000866 42.9921639,47.9859728 42.9921639,43.7492424 L42.9921639,37.3131873 L42.9921639,14.0938609 C43.0745328,12.7093255 42.5022855,11.4875747 41.5233957,10.509135 L41.5233957,10.509135 Z" id="Fill-1" fill="#FEFEFE" mask="url(#mask-2)"></path>
                </g>
                <path d="M31.1708314,29.8380617 L31.0892419,29.7556296 C31.0892419,29.7556296 31.0085203,29.7556296 31.0085203,29.6731976 L30.9260629,29.6731976 L30.8444734,29.6731976 L30.7628839,29.5907655 C30.6812944,29.5907655 30.6812944,29.5083334 30.5997049,29.5083334 C29.6197631,29.1777282 28.6398212,29.3434693 27.6590114,29.4250244 C27.4142429,29.4250244 25.3727698,29.4250244 25.2911803,29.5907655 L25.6184062,28.5182717 C25.7807172,27.9403703 25.9447642,27.2800369 26.1895326,26.7021355 C26.4343011,25.8769379 26.5167586,25.1350493 26.4343011,24.4747158 C26.3527116,23.6495182 25.8631747,22.8243207 25.1280013,22.4121603 C24.7191859,22.1648641 24.2296489,22 23.8208335,22 L23.739244,22 C23.3312966,22 23.0049386,22.2472962 23.0049386,22.7418886 C22.9224811,23.31979 22.9224811,23.8143824 22.8408917,24.3098517 C22.6777127,25.2174814 22.4329442,25.8769379 22.1065863,26.5372713 C21.9425393,26.8678765 21.6977708,27.1976048 21.3714129,27.5273331 C21.0441869,27.9403703 20.6353715,28.3525306 20.1458346,28.848 L19.1658927,30.0029258 L18.4307194,30.7456914 C18.3499978,30.8281234 18.3499978,30.8281234 18.2675404,30.9105555 C18.1043614,31.0754196 17.9411824,31.1578517 17.696414,31.2411607 C17.2875985,31.4060248 16.9612406,31.653321 16.5524252,31.653321 C16.0628882,31.7357531 15.7365303,31.4060248 15.3277148,31.4060248 L11.8158949,31.4060248 C11.326358,31.4060248 11,31.8181851 11,32.2312224 L11,41.306642 C11,41.8021113 11.4070795,42.1318396 11.8158949,42.1318396 L15.3277148,42.1318396 C15.6540728,42.1318396 15.8988413,41.8021113 16.2260672,41.8021113 L17.1244196,41.8021113 L17.206009,41.8021113 C17.696414,41.8845434 18.1043614,41.9669755 18.6754878,42.0494075 L18.9211243,42.1318396 C20.0642451,42.2975807 21.1266444,42.5448769 22.2688973,42.626432 C24.8832328,42.9570372 28.1494163,43.6998027 30.0277105,41.306642 C30.8444734,40.3165803 30.9260629,38.9143582 31.0892419,37.6761234 C31.4155998,35.696 31.7428258,33.7158765 31.9875942,31.7357531 C32.0691837,30.9929875 31.7428258,30.250222 31.1708314,29.8380617" id="Fill-4" fill="#FEFEFE"></path>
            </g>
        </g>
    </g>
</svg>