<?xml version="1.0" encoding="UTF-8"?>
<svg width="43px" height="48px" viewBox="0 0 43 48" version="1.1" xmlns="http://www.w3.org/2000/svg" xmlns:xlink="http://www.w3.org/1999/xlink">
    <title>Group 5</title>
    <g id="Website" stroke="none" stroke-width="1" fill="none" fill-rule="evenodd">
        <g id="QES_EDGAREdge_3b1" transform="translate(-944.000000, -1420.000000)" fill="#FEFEFE">
            <g id="Group-5" transform="translate(944.000000, 1420.000000)">
                <path d="M5.09740052,20 C5.18333653,20 5.26853803,19.9977499 5.35300505,19.9932498 C5.3082008,17.2444311 7.50067063,15.0041251 10.1955355,15.0491262 L10.1955355,14.5256131 C7.50067063,14.5713643 5.3082008,12.3303083 5.35300505,9.58148954 L4.841796,9.58148954 C4.88660024,12.3303083 2.69413042,14.5713643 0,14.5256131 L0,15.0491262 C2.69413042,15.0041251 4.88660024,17.2444311 4.841796,19.9932498 C4.92626301,19.9977499 5.01146452,20 5.09740052,20 L5.09740052,20 Z M16.679664,16.9789245 C17.041036,13.7935948 19.5177556,11.2645316 22.6386281,10.8947724 C23.1204573,10.8377709 23.1204573,10.1140029 22.6386281,10.0570014 C19.5177556,9.68724218 17.041036,7.15817895 16.679664,3.97284932 C16.6238424,3.48158704 15.916523,3.48158704 15.8614358,3.97284932 C15.5000639,7.15817895 13.0233442,9.68724218 9.90173724,10.0570014 C9.42064252,10.1140029 9.42064252,10.8377709 9.90173724,10.8947724 C13.0233442,11.2645316 15.5000639,13.7935948 15.8614358,16.9789245 C15.916523,17.4701868 16.6238424,17.4701868 16.679664,16.9789245 L16.679664,16.9789245 Z M7.28913585,9.57848946 C7.24800409,7.04867622 9.26566392,4.98837471 11.7445871,5.02962574 L11.7445871,4.5481137 C9.26566392,4.59011475 7.24800409,2.52906323 7.28913585,0 L6.81905857,0 C6.86019033,2.52906323 4.84326499,4.59011475 2.36434183,4.5481137 L2.36434183,5.02962574 C4.84326499,4.98837471 6.86019033,7.04867622 6.81905857,9.57848946 L7.28913585,9.57848946 Z" id="Fill-1"></path>
                <path d="M11.8733105,21.9789069 L0,28.7477294 L0,35.2522706 L11.8733105,42.0210931 L11.8733105,37.1725195 L2.78651801,31.999634 L11.8733105,26.8282126 L11.8733105,21.9789069 Z M25.0152316,16 L28.1314408,17.0051474 L17.985506,48 L14.8692967,46.9955846 L25.0152316,16 Z M31.1289022,21.9789069 L43,28.7477294 L43,35.2522706 L31.1289022,42.0210931 L31.1289022,37.1725195 L40.2142196,31.999634 L31.1289022,26.8282126 L31.1289022,21.9789069 Z" id="Fill-3"></path>
            </g>
        </g>
    </g>
</svg>