<?xml version="1.0" encoding="UTF-8"?>
<svg width="51px" height="43px" viewBox="0 0 51 43" version="1.1" xmlns="http://www.w3.org/2000/svg" xmlns:xlink="http://www.w3.org/1999/xlink">
    <title>Group 14</title>
    <defs>
        <polygon id="path-1" points="0 0 51 0 51 28.7512891 0 28.7512891"></polygon>
        <polygon id="path-3" points="5.24070302e-15 0 22.4388907 0 22.4388907 27.4640815 5.24070302e-15 27.4640815"></polygon>
    </defs>
    <g id="Website" stroke="none" stroke-width="1" fill="none" fill-rule="evenodd">
        <g id="QES_EDGAREdge_3b1" transform="translate(-251.000000, -1776.000000)">
            <g id="Group-14" transform="translate(251.000000, 1776.000000)">
                <polygon id="Fill-1" fill="#FEFEFE" points="19 13 32 13 32 11 19 11"></polygon>
                <polygon id="Fill-2" fill="#FEFEFE" points="19 18 23 18 23 16 19 16"></polygon>
                <polygon id="Fill-3" fill="#FEFEFE" points="24 18 32 18 32 16 24 16"></polygon>
                <polygon id="Fill-4" fill="#FEFEFE" points="19 23 32 23 32 21 19 21"></polygon>
                <g id="Group-13">
                    <g id="Group-7" transform="translate(0.000000, 14.248711)">
                        <mask id="mask-2" fill="white">
                            <use xlink:href="#path-1"></use>
                        </mask>
                        <g id="Clip-6"></g>
                        <path d="M45.9981402,24.3865647 C46.0217422,24.1997677 46.0379686,24.0129708 46.0379686,23.8188196 L46.0379686,3.77638751 C46.0379686,1.6877915 44.4551576,0 42.4910263,0 L38.5863658,0 L38.5863658,3.23144045 L42.7019694,3.23144045 L42.7019694,24.3394978 L29.9104077,24.3394978 C29.8705793,25.4198314 28.9663266,26.2898346 27.8607191,26.2898346 L23.2170201,26.2898346 C22.1099374,26.2898346 21.2137979,25.4198314 21.1688066,24.3394978 L8.30570122,24.3394978 L8.30570122,3.23144045 L12.4131917,3.23144045 L12.4131917,0 L8.50041795,0 C6.55251307,0 4.97043962,1.6877915 4.97043962,3.77638751 L4.97043962,23.8188196 C4.97043962,24.0129708 4.97855281,24.1997677 5.00215484,24.3865647 L0,24.3865647 L0,24.975637 C0,27.0737935 1.58133589,28.7512891 3.52997834,28.7512891 L47.4695791,28.7512891 C49.4182216,28.7512891 51.000295,27.0737935 51.000295,24.975637 L51.000295,24.3865647 L45.9981402,24.3865647 Z" id="Fill-5" fill="#FEFEFE" mask="url(#mask-2)"></path>
                    </g>
                    <g id="Group-10" transform="translate(14.280923, 0.000000)">
                        <mask id="mask-4" fill="white">
                            <use xlink:href="#path-3"></use>
                        </mask>
                        <g id="Clip-9"></g>
                        <path d="M1.80703028,8.58140855 C1.80703028,8.49904139 1.8247318,8.4159388 1.85644703,8.33798416 L4.29483156,8.2629712 C4.46373357,8.2629712 4.62599752,8.25120447 4.78899903,8.23281894 C6.21102122,8.06514292 7.47077947,7.13409977 8.04902916,5.82431473 C8.2053926,5.47572512 8.28947483,5.10360202 8.34331695,4.73074351 L8.34331695,1.928789 L8.41707329,1.85745315 C8.45395146,1.82068209 8.50336821,1.80229657 8.56606109,1.80229657 L17.1284344,1.80229657 C19.0601129,1.80229657 20.6303853,3.36874358 20.6303853,5.29334068 L20.6303853,22.1705202 C20.6303853,24.0958527 19.0601129,25.6622997 17.1284344,25.6622997 L5.31266902,25.6622997 C3.38025297,25.6622997 1.80703028,24.0958527 1.80703028,22.1705202 L1.80703028,8.58140855 Z M5.31266902,27.4640815 L17.1284344,27.4640815 C20.056561,27.4640815 22.4388907,25.0894067 22.4388907,22.1705202 L22.4388907,5.29334068 C22.4388907,2.37518963 20.056561,-0.000220626339 17.1284344,-0.000220626339 L8.56606109,-0.000220626339 C8.02321445,-0.000220626339 7.51577084,0.207168133 7.14551402,0.576349541 L0.73756338,6.83037084 C0.26847307,7.29147989 0,7.92982543 0,8.58140855 L0,22.1705202 C0,25.0894067 2.38306728,27.4640815 5.31266902,27.4640815 L5.31266902,27.4640815 Z" id="Fill-8" fill="#FEFEFE" mask="url(#mask-4)"></path>
                    </g>
                    <path d="M30.3393008,31.9295586 C30.4160074,31.9552984 30.504515,31.9832444 30.5922851,32.0133966 C31.1830734,32.2141666 31.7731241,32.4186137 32.371288,32.6171774 C32.499624,32.6598318 32.546828,32.7194009 32.5394524,32.834862 C32.5291265,33.0032735 32.5394524,33.1716849 32.5291265,33.3400964 C32.5254387,33.3878987 32.4774971,33.4562929 32.4288179,33.4754138 C31.7480469,33.7100132 31.0650632,33.9365229 30.3806044,34.1630326 C30.3584775,34.1696514 30.3326628,34.1667097 30.3245496,34.1696514 C30.3282374,33.4283469 30.335613,32.6899841 30.3393008,31.9295586 M16.4996616,31.1404518 C15.9369007,31.1433934 15.5636937,31.4500641 15.556318,31.9266169 C15.5459921,32.6436525 15.544517,33.3606881 15.5482048,34.0777238 C15.5511551,34.5550121 15.9199368,34.8594764 16.487123,34.8660952 C16.8935204,34.8705077 18.3428325,34.8712432 19.0442552,34.8719786 C19.0464679,34.8719786 19.0612192,34.8756557 19.0774456,34.8756557 C23.3715396,34.8903641 25.9441607,34.9050725 30.2367795,34.9124267 C30.3975684,34.9124267 30.5745836,34.886687 30.7243089,34.8352075 C32.16182,34.35939 33.5956432,33.8769538 35.0257786,33.3945175 C35.1393633,33.3577465 35.2529481,33.3070024 35.3444059,33.245227 C35.5015069,33.1356493 35.5015069,32.9929776 35.3362927,32.8863415 C35.2337714,32.8201536 35.1069105,32.7708804 34.9807872,32.7260197 C33.7822467,32.312713 32.5829686,31.8957293 31.3777901,31.4897768 C30.9448404,31.3448988 30.5259044,31.1831062 30.0287867,31.1831062 C25.9257216,31.1801645 23.4747985,31.161779 19.4373765,31.1507476 L19.4373765,31.1463351 C18.9284578,31.1441289 17.0041549,31.1382455 16.4996616,31.1404518" id="Fill-11" fill="#FEFEFE"></path>
                </g>
            </g>
        </g>
    </g>
</svg>