<?xml version="1.0" encoding="UTF-8"?>
<svg width="57px" height="57px" viewBox="0 0 57 57" version="1.1" xmlns="http://www.w3.org/2000/svg" xmlns:xlink="http://www.w3.org/1999/xlink">
    <title>LinkedIn Icon</title>
    <g id="Website" stroke="none" stroke-width="1" fill="none" fill-rule="evenodd">
        <g id="QES_Home" transform="translate(-1179.000000, -5080.000000)">
            <g id="Footer" transform="translate(-12.000000, 4484.000000)">
                <g id="LinkedIn-Icon" transform="translate(1191.593750, 596.272727)">
                    <ellipse id="Oval" fill="#0091FF" cx="27.90625" cy="28" rx="27.90625" ry="28"></ellipse>
                    <path d="M25.9325271,24.622799 L29.7526896,24.622799 L29.7526896,26.3112874 L29.8254546,26.3112874 C30.6052528,25.0289699 32.0544891,24.2637034 33.5971071,24.3193379 C37.6396071,24.3193379 38.3793846,26.8754137 38.3793846,30.1979232 L38.3793846,36.9713295 L34.3934796,36.9713295 L34.3934796,30.9682474 C34.3934796,29.5365337 34.3692246,27.6924243 32.3237196,27.6924243 C30.2782146,27.6924243 29.9305596,29.2486348 29.9305596,30.8632032 L29.9305596,36.9713295 L25.9486971,36.9713295 L25.9325271,24.622799 Z" id="Fill-4" fill="#FFFFFF"></path>
                    <path d="M21.1467656,17.2037912 C22.6602776,17.2037912 23.8872811,18.2693469 23.8872811,19.5837126 C23.8872811,20.8980783 22.6602776,21.963634 21.1467656,21.963634 C19.6332536,21.963634 18.40625,20.8980783 18.40625,19.5837126 C18.40625,18.2693469 19.6332536,17.2037912 21.1467656,17.2037912 L21.1467656,17.2037912 Z M18.7799567,36.9712852 L23.5087833,36.9712852 L23.5087833,23.7652178 L18.7799567,23.7652178 L18.7799567,36.9712852 Z" id="Fill-1" fill="#FFFFFF"></path>
                </g>
            </g>
        </g>
    </g>
</svg>