<?xml version="1.0" encoding="UTF-8"?>
<svg width="18px" height="18px" viewBox="0 0 18 18" version="1.1" xmlns="http://www.w3.org/2000/svg" xmlns:xlink="http://www.w3.org/1999/xlink">
    <title>phone icon</title>
    <defs>
        <polygon id="path-1" points="0 0 17.4 0 17.4 17.4 0 17.4"></polygon>
    </defs>
    <g id="Website" stroke="none" stroke-width="1" fill="none" fill-rule="evenodd">
        <g id="QES_Microsites-E-Delivery_3b3" transform="translate(-1174.000000, -54.000000)">
            <g id="Navigation" transform="translate(0.000000, -1.000000)">
                <g id="phone-icon" transform="translate(1174.000000, 55.000000)">
                    <mask id="mask-2" fill="white">
                        <use xlink:href="#path-1"></use>
                    </mask>
                    <g id="Clip-2"></g>
                    <path d="M14.2918551,11.0205912 C13.8689029,10.5982187 13.2087839,10.573544 12.8157316,10.9663069 L11.0873462,12.6952766 C10.9404596,12.8418732 10.8519212,13.0264979 10.8205699,13.2221537 C9.62312457,12.4247259 8.38184547,11.4113221 7.1855613,10.2150354 C5.98956741,9.01874863 4.97616579,7.77717658 4.17844948,6.57972867 C4.3738145,6.54866759 4.5584388,6.46012902 4.70532543,6.31324208 L6.43429135,4.58427244 C6.82676313,4.19238039 6.80179821,3.53167944 6.38000716,3.10901661 L4.51228272,0.632839479 C4.08962081,0.210466943 3.6495415,-0.230774468 2.59637018,0.137894343 C1.64131681,0.471147725 0.749546612,1.86773485 0.590758103,2.12609331 C0.578275643,2.13770493 0.564051444,2.14844567 0.551568983,2.16063787 C-1.04647625,3.75781566 0.946072792,8.34150112 5.00258216,12.3985998 C9.05822066,16.4545373 13.641606,18.4462197 15.2408124,16.8484614 C15.2530045,16.8362692 15.2628744,16.8223352 15.274486,16.8098527 C15.5325536,16.6516445 16.9291377,15.7590015 17.2623904,14.8039461 C17.6301875,13.7513531 17.1903985,13.3112728 16.7674463,12.8883197 L14.2918551,11.0205912 Z" id="Fill-1" fill="#DE3D3B" mask="url(#mask-2)"></path>
                </g>
            </g>
        </g>
    </g>
</svg>