<?xml version="1.0" encoding="utf-8"?>
<!-- Generator: Adobe Illustrator 25.2.1, SVG Export Plug-In . SVG Version: 6.00 Build 0)  -->
<svg version="1.1" id="Layer_1" xmlns="http://www.w3.org/2000/svg" xmlns:xlink="http://www.w3.org/1999/xlink" x="0px" y="0px"
	 viewBox="0 0 84 85" style="enable-background:new 0 0 84 85;" xml:space="preserve">
<style type="text/css">
	.st0{fill-rule:evenodd;clip-rule:evenodd;fill:#215EAB;}
	.st1{fill-rule:evenodd;clip-rule:evenodd;fill:#FFFFFF;}
	.st2{filter:url(#Adobe_OpacityMaskFilter);}
	.st3{mask:url(#mask-2_1_);fill-rule:evenodd;clip-rule:evenodd;fill:#FFFFFF;}
	.st4{filter:url(#Adobe_OpacityMaskFilter_1_);}
	.st5{mask:url(#mask-2_2_);fill-rule:evenodd;clip-rule:evenodd;fill:#1C3052;}
	.st6{filter:url(#Adobe_OpacityMaskFilter_2_);}
	.st7{mask:url(#mask-2_3_);fill-rule:evenodd;clip-rule:evenodd;fill:#1C3052;}
</style>
<g>
	<path id="Fill-1" class="st0" d="M71.9,56.9c0,4.8-3.9,8.8-8.8,8.8c-4.8,0-8.8-3.9-8.8-8.8s3.9-8.8,8.8-8.8
		C67.9,48.1,71.9,52,71.9,56.9"/>
	<path id="Fill-3" class="st1" d="M47.3,72.9l-2.2,0.3l-4.3,0.6L39.6,71L13,71c-0.1,0-0.4-0.3-0.4-0.8V7.6C12.7,7,13,6.8,13,6.8
		h26.8c2.6,0,4.7,2.1,4.8,4.6L45,21.9l13.6,2.4c0.7,0.1,1.6,1,1.6,1.8v5.5l1.1,1.5l1.4,1.8L64,33l2.1-2.8v-6.5
		c0-1.3-0.5-2.5-1.3-3.5L52,5.7C48.8,2.1,44.1,0,39.2,0H10.7c-2.2,0-4,2-4,4.5v68.7c0,2.5,1.8,4.5,4,4.5h35.9l0.3-2.6L47.3,72.9z"/>
	<polygon id="Fill-5" class="st1" points="21.5,60.8 36,60.8 38.9,58.6 40.7,57.2 38.9,55.9 21.5,55.9 	"/>
	<polygon id="Fill-7" class="st1" points="21.5,48.2 37.4,48.2 38.9,44.6 39.4,43.3 21.5,43.3 	"/>
	<polygon id="Fill-9" class="st1" points="21.5,30.7 21.5,35.6 46.2,35.6 51.4,32.7 51.4,30.7 	"/>
	<defs>
		<filter id="Adobe_OpacityMaskFilter" filterUnits="userSpaceOnUse" x="21.5" y="18.1" width="14.9" height="4.9">
			<feColorMatrix  type="matrix" values="1 0 0 0 0  0 1 0 0 0  0 0 1 0 0  0 0 0 1 0"/>
		</filter>
	</defs>
	<mask maskUnits="userSpaceOnUse" x="21.5" y="18.1" width="14.9" height="4.9" id="mask-2_1_">
		<g class="st2">
			<polygon id="path-1_1_" class="st1" points="0,84.5 83.6,84.5 83.6,0 0,0 			"/>
		</g>
	</mask>
	<polygon id="Fill-11" class="st3" points="21.5,23 36.4,23 36.4,18.1 21.5,18.1 	"/>
	<defs>
		<filter id="Adobe_OpacityMaskFilter_1_" filterUnits="userSpaceOnUse" x="42.2" y="36.3" width="41.4" height="41.4">
			<feColorMatrix  type="matrix" values="1 0 0 0 0  0 1 0 0 0  0 0 1 0 0  0 0 0 1 0"/>
		</filter>
	</defs>
	<mask maskUnits="userSpaceOnUse" x="42.2" y="36.3" width="41.4" height="41.4" id="mask-2_2_">
		<g class="st4">
			<polygon id="path-1_2_" class="st1" points="0,84.5 83.6,84.5 83.6,0 0,0 			"/>
		</g>
	</mask>
	<path id="Fill-13" class="st5" d="M69.3,57.7c-0.4,3.3-3.2,5.8-6.4,5.8c-0.2,0-0.5,0-0.7,0c-3.5-0.4-6.1-3.6-5.7-7.1
		c0.4-3.3,3.2-5.8,6.4-5.8c0.2,0,0.5,0,0.7,0C67.1,51,69.7,54.2,69.3,57.7L69.3,57.7z M78.2,55.1l5.3-4.1l-2-4.6l-6.6,1l-2.6-2.5
		l0.9-6.6l-4.7-1.9l-4,5.3l-3.6,0l-4.1-5.3l-4.6,2l1,6.6l-2.5,2.6l-6.6-0.9l-1.9,4.7l5.3,4l0,3.6L42.3,63l2,4.6l6.6-1l2.6,2.5
		l-0.9,6.6l4.7,1.9l4-5.3l3.6,0l4.1,5.3l4.6-2l-1-6.6l2.5-2.6l6.6,0.9l1.9-4.7l-5.3-4L78.2,55.1z"/>
	<defs>
		<filter id="Adobe_OpacityMaskFilter_2_" filterUnits="userSpaceOnUse" x="0" y="4.8" width="48.1" height="79.7">
			<feColorMatrix  type="matrix" values="1 0 0 0 0  0 1 0 0 0  0 0 1 0 0  0 0 0 1 0"/>
		</filter>
	</defs>
	<mask maskUnits="userSpaceOnUse" x="0" y="4.8" width="48.1" height="79.7" id="mask-2_3_">
		<g class="st6">
			<polygon id="path-1_3_" class="st1" points="0,84.5 83.6,84.5 83.6,0 0,0 			"/>
		</g>
	</mask>
	<path id="Fill-14" class="st7" d="M46.9,84.5h-36C4.9,84.5,0,79.6,0,73.6V6c0-0.7,0.5-1.2,1.2-1.2c0.7,0,1.2,0.5,1.2,1.2v67.6
		c0,4.7,3.8,8.5,8.5,8.5h36c0.7,0,1.2,0.5,1.2,1.2C48.1,84,47.6,84.5,46.9,84.5"/>
</g>
</svg>
