<?xml version="1.0" encoding="utf-8"?>
<!-- Generator: Adobe Illustrator 25.2.1, SVG Export Plug-In . SVG Version: 6.00 Build 0)  -->
<svg version="1.1" id="Layer_1" xmlns="http://www.w3.org/2000/svg" xmlns:xlink="http://www.w3.org/1999/xlink" x="0px" y="0px"
	 viewBox="0 0 102 102" style="enable-background:new 0 0 102 102;" xml:space="preserve">
<style type="text/css">
	.st0{fill:none;stroke:#215EAB;stroke-width:2.7972;stroke-linecap:round;stroke-linejoin:round;}
	.st1{fill-rule:evenodd;clip-rule:evenodd;fill:#FFFFFF;}
	.st2{fill-rule:evenodd;clip-rule:evenodd;fill:#DE3D3B;}
</style>
<g id="Group-11" transform="translate(695.138726, 307.138411)">
	<path id="Stroke-1" class="st0" d="M-594.9-256c0,27.1-22,49-49,49c-27.1,0-49-22-49-49s22-49,49-49"/>
	<path id="Fill-3" class="st1" d="M-653.3-221.2c-3.3-3.3-6.8-8.2-9.3-15.3h-11.3C-669.2-229.1-661.9-223.6-653.3-221.2
		L-653.3-221.2z M-630-236.5h-10.8v14.5C-637.8-224.2-633.2-228.5-630-236.5L-630-236.5z M-640.8-290.1v16.3h11.4
		C-632.5-282.9-637.6-287.8-640.8-290.1L-640.8-290.1z M-674.6-273.9h11.5c2.3-7.6,5.8-12.8,9.2-16.4
		C-662.8-287.6-670.1-281.6-674.6-273.9L-674.6-273.9z M-665.6-256.5c0-5.6,0.7-10.5,1.7-14.7h-11.7c-0.1,0-0.3,0-0.4-0.1
		c-2.1,4.5-3.4,9.5-3.5,14.8H-665.6z M-626.8-253.9h-14.1v14.8h11.7C-627.8-243.2-626.9-248.1-626.8-253.9L-626.8-253.9z
		 M-658.5-271.2c-1.1,4.1-1.8,9-1.9,14.7h14.3v-14.7H-658.5z M-657.7-273.9h11.6v-16.4C-649.3-288-654.5-283.1-657.7-273.9
		L-657.7-273.9z M-628.6-271.2h-12.2v14.7h14.1C-626.8-262.3-627.5-267.1-628.6-271.2L-628.6-271.2z M-646.1-239.1v-14.8h-14.2
		c0.2,5.8,1.1,10.7,2.4,14.8H-646.1z M-646.1-221.9v-14.6h-11C-653.8-228.4-649.1-224-646.1-221.9L-646.1-221.9z M-675.3-239
		c0.2-0.1,0.4-0.1,0.6-0.1h11.3c-1.2-4.2-2-9.1-2.1-14.8h-13.9C-679.2-248.5-677.7-243.5-675.3-239L-675.3-239z M-643.5-297.1
		c0.1,0,0.2,0,0.4,0l0.6,0.1c0.2,0,0.4,0.1,0.6,0.2c0.8,0.3,20.4,8.6,20.4,40.7c0,18.6-6.6,29.2-12.3,34.9
		c15.1-4.3,26.3-18.2,26.3-34.7c0-1.4,1.2-2.6,2.6-2.6c1.4,0,2.6,1.2,2.6,2.6c0,22.7-18.5,41.2-41.2,41.2
		c-22.7,0-41.3-18.5-41.3-41.2C-684.8-278.6-666.3-297.1-643.5-297.1L-643.5-297.1z"/>
	<path id="Fill-5" class="st2" d="M-602.5-265.2c0,1.8-1.5,3.3-3.3,3.3c-1.8,0-3.3-1.5-3.3-3.3s1.5-3.3,3.3-3.3
		C-604-268.5-602.5-267-602.5-265.2"/>
	<path id="Fill-7" class="st2" d="M-606.3-274c0,1.6-1.3,2.8-2.8,2.8c-1.6,0-2.8-1.3-2.8-2.8c0-1.6,1.3-2.8,2.8-2.8
		C-607.5-276.8-606.3-275.6-606.3-274"/>
	<path id="Fill-9" class="st2" d="M-612.4-281.8c0,1.1-0.9,2.1-2.1,2.1c-1.1,0-2.1-0.9-2.1-2.1c0-1.1,0.9-2.1,2.1-2.1
		C-613.3-283.9-612.4-283-612.4-281.8"/>
</g>
</svg>
