<?xml version="1.0" encoding="UTF-8"?>
<svg width="55px" height="51px" viewBox="0 0 55 51" version="1.1" xmlns="http://www.w3.org/2000/svg" xmlns:xlink="http://www.w3.org/1999/xlink">
    <title>Group 6</title>
    <defs>
        <polygon id="path-1" points="0 0 55 0 55 17 0 17"></polygon>
    </defs>
    <g id="Website" stroke="none" stroke-width="1" fill="none" fill-rule="evenodd">
        <g id="QES_Form13F_3b5" transform="translate(-397.000000, -1318.000000)">
            <g id="Self-Service" transform="translate(-9.000000, 1133.000000)">
                <g id="Group-6" transform="translate(406.000000, 185.000000)">
                    <g id="Group-3" transform="translate(0.000000, 34.000000)">
                        <mask id="mask-2" fill="white">
                            <use xlink:href="#path-1"></use>
                        </mask>
                        <g id="Clip-2"></g>
                        <path d="M51.7491363,0 C49.9921163,0 48.5863119,1.36005101 48.5863119,3.05988704 L48.5863119,7.22521407 C48.5863119,9.1801166 46.9168604,10.7952341 44.8961932,10.7952341 L10.0156733,10.7952341 C7.99500611,10.7952341 6.3260254,9.1801166 6.3260254,7.22521407 L6.3260254,3.23023503 C6.3260254,1.52994352 4.92022105,0.170347984 3.16273022,0.170347984 C1.40571019,0.170347984 -9.41597017e-05,1.52994352 -9.41597017e-05,3.23023503 L-9.41597017e-05,7.22521407 C-9.41597017e-05,12.5802441 4.48096604,17.0001822 10.1037126,17.0001822 L44.8961932,17.0001822 C50.4313713,17.0001822 55,12.6649627 55,7.22521407 L55,3.05988704 C54.9119607,1.36005101 53.4185878,0 51.7491363,0" id="Fill-1" fill="#FEFEFE" mask="url(#mask-2)"></path>
                    </g>
                    <path d="M41.7222807,20.7431942 C41.1890225,19.6101764 40.2120175,19.0871013 38.7903132,19.0871013 L34.6142355,19.0871013 L33.5481954,19.0871013 C33.6367543,18.1282861 33.8143483,16.8210656 33.9924185,15.4265102 C34.3476065,12.5505316 34.7027945,9.32568058 34.8803885,7.40851718 C35.1470175,3.39905365 32.0374561,0 28.0389724,0 C26.1730451,0 24.3961528,0.697277699 23.0634836,2.00449825 C21.6417794,3.39905365 20.8418922,5.31668408 21.0194862,7.40851718 C21.1975563,9.32568058 21.6417794,12.9862717 21.9969674,15.9495852 C22.1745614,17.1699379 22.2635965,18.3024888 22.3521554,19.1744362 L21.3751503,19.1744362 L17.1100376,19.1744362 C15.4217043,19.1744362 14.6222932,20.0459165 14.2666291,20.8305291 C14.0890351,21.2662693 14,21.7020095 14,22.1377496 C14,22.7476925 14.2666291,23.4449702 14.7113282,24.054913 C18.0875188,28.7616543 21.5527443,32.9448534 25.284599,36.6927795 C26.08401,37.5642598 27.0614912,38 28.0389724,38 C29.0164536,38 29.9939348,37.5642598 30.8823809,36.6927795 C34.5252005,33.0321883 37.990426,28.8485221 41.4556516,24.054913 C42.0779448,22.8350273 42.1665037,21.7888773 41.7222807,20.7431942" id="Fill-4" fill="#FEFEFE"></path>
                </g>
            </g>
        </g>
    </g>
</svg>