<?xml version="1.0" encoding="UTF-8"?>
<svg width="49px" height="61px" viewBox="0 0 49 61" version="1.1" xmlns="http://www.w3.org/2000/svg" xmlns:xlink="http://www.w3.org/1999/xlink">
    <title>Group 9</title>
    <defs>
        <polygon id="path-1" points="0 0 49 0 49 53 0 53"></polygon>
        <polygon id="path-3" points="3.41372625e-15 0 21 0 21 13 3.41372625e-15 13"></polygon>
    </defs>
    <g id="Website" stroke="none" stroke-width="1" fill="none" fill-rule="evenodd">
        <g id="QES_Form13F_3b5" transform="translate(-676.000000, -1568.000000)">
            <g id="Self-Service" transform="translate(-9.000000, 1133.000000)">
                <g id="Group-9" transform="translate(685.000000, 435.000000)">
                    <path d="M32.8750626,21.0376174 L20.0171688,33.7301902 L16.125249,29.888311 C14.7237391,28.5053132 12.4522061,28.5053132 11.0511948,29.888311 C9.64968485,31.2718009 9.64968485,33.5141275 11.0506962,34.8971253 L16.9907849,40.7623154 C18.6620269,42.4125615 21.3718122,42.4125615 23.0435527,40.7623154 L37.9496154,26.0464318 C39.3501282,24.6629418 39.3501282,22.4211074 37.9496154,21.0376174 L37.9491168,21.0376174 C36.5481055,19.6541275 34.2765725,19.6541275 32.8750626,21.0376174" id="Fill-1" fill="#FEFEFE"></path>
                    <g id="Group-5" transform="translate(0.000000, 8.000000)">
                        <mask id="mask-2" fill="white">
                            <use xlink:href="#path-1"></use>
                        </mask>
                        <g id="Clip-4"></g>
                        <path d="M46.7575909,0 L36.6975309,0 L36.6975309,4.57672468 L44.5153762,4.57672468 L44.5153762,48.4237715 L4.48520731,48.4237715 L4.48520731,4.57672468 L12.3030526,4.57672468 L12.3030526,0 L2.2425064,0 C1.00493619,0 -0.000194510053,1.025099 -0.000194510053,2.28836234 L-0.000194510053,50.7116377 C-0.000194510053,51.974901 1.00493619,53 2.2425064,53 L46.7575909,53 C47.9956473,53 49.0002918,51.974901 49.0002918,50.7116377 L49.0002918,2.28836234 C49.0002918,1.025099 47.9956473,0 46.7575909,0" id="Fill-3" fill="#FEFEFE" mask="url(#mask-2)"></path>
                    </g>
                    <g id="Group-8" transform="translate(14.000000, 0.000000)">
                        <mask id="mask-4" fill="white">
                            <use xlink:href="#path-3"></use>
                        </mask>
                        <g id="Clip-7"></g>
                        <path d="M21,7.96897993 C21,6.89507875 20.1400137,6.02378205 19.0811256,6.02378205 L17.392862,6.02378205 C16.8917639,2.61408491 14.0028826,-0.00029221801 10.4975978,-0.00029221801 C8.74735758,-0.00029221801 7.15181881,0.655737214 5.92862045,1.73353464 C4.70590254,2.81181909 3.85504461,4.32112511 3.60233356,6.02378205 L1.91839396,6.02378205 C0.859505834,6.02378205 3.41372625e-15,6.89507875 3.41372625e-15,7.96897993 L3.41372625e-15,13 L21,13 L21,7.96897993 Z" id="Fill-6" fill="#FEFEFE" mask="url(#mask-4)"></path>
                    </g>
                </g>
            </g>
        </g>
    </g>
</svg>