<?xml version="1.0" encoding="UTF-8"?>
<svg width="53px" height="65px" viewBox="0 0 53 65" version="1.1" xmlns="http://www.w3.org/2000/svg" xmlns:xlink="http://www.w3.org/1999/xlink">
    <title>Group 11</title>
    <defs>
        <polygon id="path-1" points="0 65 53 65 53 0 0 0"></polygon>
    </defs>
    <g id="Website" stroke="none" stroke-width="1" fill="none" fill-rule="evenodd">
        <g id="QES_Form13F_3b5" transform="translate(-264.000000, -1568.000000)">
            <g id="Self-Service" transform="translate(-9.000000, 1133.000000)">
                <g id="Group-11" transform="translate(273.000000, 435.000000)">
                    <path d="M24.0295197,5.86427819 L17.9704803,5.86427819 L17.9704803,5.6223393 C18.0163442,4.0118019 19.3426451,2.7085353 20.9353736,2.7085353 L21.0646264,2.7085353 C22.6573549,2.7085353 23.9836558,4.0118019 24.0295197,5.6223393 L24.0295197,5.86427819 Z M30.9078552,7.828451 C30.8248833,7.54899895 30.6960474,7.27924131 30.5301034,7.03730242 C30.1711141,6.50663857 29.6278352,6.12476291 29.0107572,5.95742887 C28.7810207,5.89209694 28.5412775,5.86427819 28.3019513,5.86427819 L26.7092228,5.86427819 L26.7092228,5.63161222 C26.6721147,2.52265543 24.14001,0 21.0646264,0 L20.9812375,0 C19.4164443,0 18.0075884,0.632665964 16.9760674,1.64762908 C15.9541361,2.67144362 15.3095397,4.07713383 15.2907772,5.63161222 L15.2907772,5.86427819 L13.6980487,5.86427819 C13.4583055,5.86427819 13.2189793,5.89209694 12.9892428,5.95742887 C12.3721648,6.12476291 11.828469,6.50663857 11.4694797,7.03730242 C11.3039526,7.27924131 11.1751167,7.54899895 11.0921448,7.828451 C11.0458639,7.98651212 11.0091728,8.16354057 11,8.34056902 L11,11.5051633 C11.0091728,11.6914647 11.0458639,11.8587987 11.0921448,12.0172813 C11.414443,13.1620653 12.4272015,13.9532139 13.5967312,14 L28.3845063,14 C29.5727985,13.9532139 30.585557,13.1620653 30.9078552,12.0172813 C30.9537191,11.8587987 30.9904103,11.6914647 31,11.5237092 L31,8.32160169 C30.9904103,8.16354057 30.9537191,7.99620653 30.9078552,7.828451 L30.9078552,7.828451 Z" id="Fill-1" fill="#FEFEFE"></path>
                    <path d="M41.9914638,40.1882373 L41.9828258,39.6464648 C41.9828258,38.3856204 41.9746198,37.078412 41.9828258,35.7961027 C41.9828258,32.7918844 41.9828258,35.2882447 41.9746198,32.2715768 L41.9746198,30.7269673 C41.9746198,26.0639465 41.9746198,21.2442325 41.9828258,16.5047969 C41.9828258,12.980271 40.5061718,10.3821674 37.5684121,8.79935046 C36.555183,8.25800732 35.4227505,8.0124496 33.8778568,8 L33.0732337,8 L33.0732337,11.7194266 L33.2477199,11.7194266 C33.7625405,11.7275832 34.1922775,11.7361692 34.5714825,11.7657907 C36.555183,11.8885695 38.2451939,13.5555286 38.3389154,15.4809243 C38.4455938,17.3595267 38.4369559,19.3227005 38.4369559,21.0579177 L38.4369559,36.1386815 L38.4369559,44.906208 C38.4369559,45.9429595 38.4369559,47.0050396 37.9476172,47.9237345 C37.0915984,49.5061221 35.8615573,50.2762804 34.1922775,50.2762804 L20.9995681,50.2762804 L7.80772255,50.2762804 C6.13844272,50.2762804 4.90840159,49.5061221 4.0523828,47.9237345 C3.56261221,47.0050396 3.56261221,45.9429595 3.56261221,44.906208 L3.56261221,36.1386815 L3.56261221,21.0579177 C3.56261221,19.3227005 3.55440618,17.3595267 3.66108461,15.4809243 C3.75480614,13.5555286 5.444817,11.8885695 7.42851745,11.7657907 C7.80772255,11.7361692 8.23745953,11.7275832 8.75228011,11.7194266 L8.92676628,11.7194266 L8.92676628,8 L8.12214317,8 C6.57724952,8.0124496 5.444817,8.25800732 4.4315879,8.79935046 C1.49382816,10.3821674 0.0167422543,12.980271 0.0167422543,16.5047969 C0.0253801835,21.2442325 0.0253801835,26.0639465 0.0253801835,30.7269673 L0.0253801835,32.2715768 C0.0167422543,35.2882447 0.0167422543,32.7918844 0.0167422543,35.7961027 C0.0253801835,37.078412 0.0167422543,38.3856204 0.0167422543,39.6464648 L0.00853622148,40.1882373 C-0.0044206724,43.8063499 -0.0130586017,42.7567194 0.0638189687,46.4632671 C0.110463787,48.4436128 0.932362755,50.3312304 2.3921728,51.7612177 C3.86105267,53.2040839 5.76830745,54 7.78180876,54 L7.82024754,54 C12.1029329,53.9828281 16.2871458,53.9703785 20.5447811,53.9703785 L20.9995681,53.9703785 L21.4552189,53.9703785 C25.7128542,53.9703785 29.8970671,53.9828281 34.1797525,54 L34.2181912,54 C36.2316926,54 38.1389473,53.2040839 39.6073953,51.7612177 C41.0676372,50.3312304 41.8895362,48.4436128 41.936181,46.4632671 C42.0130586,42.7567194 42.0044207,43.8063499 41.9914638,40.1882373" id="Fill-3" fill="#FEFEFE"></path>
                    <path d="M8.5436185,19.0884747 L13.5639182,23.8197013 C13.6692873,23.918855 13.8309966,23.9356607 13.9557192,23.860035 L18.1175833,21.3345574 C18.1734934,21.300946 18.2380051,21.2845604 18.3029469,21.2875014 L26.9337508,23.6554255 C26.9999828,23.6587867 27.0653546,23.641981 27.1216949,23.6071091 L32.5075608,19.4758462 C32.7213095,19.3430811 33,19.4934922 33,19.7405361 L33,29.6865736 C33,29.8596723 32.856354,30 32.6795919,30 L8.32083814,30 C8.14364603,30 8,29.8596723 8,29.6865736 L8,19.3136712 C8,19.0376374 8.33976156,18.8964695 8.5436185,19.0884747" id="Fill-5" fill="#FEFEFE"></path>
                    <mask id="mask-2" fill="white">
                        <use xlink:href="#path-1"></use>
                    </mask>
                    <g id="Clip-8"></g>
                    <polygon id="Fill-7" fill="#FEFEFE" mask="url(#mask-2)" points="8 38 33 38 33 36 8 36"></polygon>
                    <polygon id="Fill-9" fill="#FEFEFE" mask="url(#mask-2)" points="8 44 33 44 33 42 8 42"></polygon>
                    <path d="M36.3589059,58.6416744 C31.4560566,58.7084093 27.41388,54.6728606 27.348376,49.6460648 C27.282872,44.6188439 31.2193302,40.474479 36.1221795,40.4077441 C41.0200538,40.3405841 45.0572554,44.3757078 45.123174,49.4033538 C45.1426594,50.9114775 44.7939957,52.4102499 44.1153246,53.7364466 C43.3744662,55.1871869 42.2658734,56.4105184 40.9089458,57.2750967 C39.5366786,58.1473261 37.9633391,58.6195711 36.3589059,58.6416744 M51.2958887,60.3869834 L51.2386763,60.3283247 C51.1968035,60.2853933 51.1549307,60.2399115 51.0898413,60.1901792 L45.7064912,55.7295674 L45.8528387,55.4804804 C46.9390441,53.6352816 47.497901,51.5227182 47.4701239,49.371049 C47.3876221,43.0172063 42.2828712,37.9164495 36.0910858,38.001037 C29.8934962,38.0860497 24.9185096,43.3241018 25.0010115,49.6779445 C25.0839279,56.0322123 30.1928246,61.132544 36.3904142,61.0479564 C38.6328894,61.0173519 40.7845711,60.3108971 42.6116349,59.0046783 L42.8512635,58.8329528 L47.3486514,64.1198872 C48.3544278,65.2322772 50.0542149,65.2994372 51.138762,64.2686593 C52.225382,63.2438322 52.2904714,61.496823 51.2958887,60.3869834" id="Fill-10" fill="#0D2946" mask="url(#mask-2)"></path>
                </g>
            </g>
        </g>
    </g>
</svg>