<?xml version="1.0" encoding="UTF-8"?>
<svg width="50px" height="61px" viewBox="0 0 50 61" version="1.1" xmlns="http://www.w3.org/2000/svg" xmlns:xlink="http://www.w3.org/1999/xlink">
    <title>Group 8</title>
    <defs>
        <polygon id="path-1" points="0 61 50 61 50 0 0 0"></polygon>
    </defs>
    <g id="Website" stroke="none" stroke-width="1" fill="none" fill-rule="evenodd">
        <g id="QES_Form13F_3b5" transform="translate(-874.000000, -1308.000000)">
            <g id="Self-Service" transform="translate(-9.000000, 1133.000000)">
                <g id="Group-8" transform="translate(883.000000, 175.000000)">
                    <path d="M34.1953387,21.0129007 C34.1953387,21.5723937 33.7142846,22.0516029 33.1537215,22.0516029 C32.5926585,22.0516029 32.1121044,21.5723937 32.1121044,21.0129007 L32.1121044,19.5747744 C32.1121044,18.8557112 31.5515414,18.2962183 30.8304603,18.2962183 L19.132645,18.2962183 C18.411564,18.2962183 17.8505009,18.8557112 17.8505009,19.5747744 L17.8505009,21.0129007 C17.8505009,21.5723937 17.3699469,22.0516029 16.8088838,22.0516029 C16.2478207,22.0516029 15.7672667,21.5723937 15.7672667,21.0129007 L15.7672667,19.6545595 C15.7672667,17.817009 17.2894378,16.2990976 19.132645,16.2990976 L30.7499513,16.2990976 C32.5926585,16.2990976 34.1153297,17.817009 34.1153297,19.6545595 L34.1153297,21.0129007 L34.1953387,21.0129007 Z M49.6585773,19.9741985 C48.6169602,16.2193125 45.1715728,13.6622002 41.2461314,13.6622002 L40.5245503,13.6622002 C40.6850683,10.4668071 39.9639873,7.75012466 38.4413161,5.51315006 C36.5991089,2.79646758 33.9553117,1.03870221 30.6699423,0.239853942 C29.8688522,0.079785095 29.0672621,0 28.186163,0 C24.8212847,0 20.3342802,1.43812634 17.5299648,5.59293516 C16.4083387,5.11322727 15.2062036,4.87387199 14.0045685,4.87387199 C9.35754596,4.87387199 5.43160454,8.46918783 5.0310595,13.1032059 C4.55050547,13.3430598 4.06945138,13.6622002 3.50888835,14.062123 C2.22674419,15.1008252 1.26513607,16.4586678 0.624564043,17.9770779 C-0.337044078,20.5336915 -0.176526029,23.3296604 1.02510908,25.7267039 C2.70779828,28.9225956 5.35159554,30.6005759 8.95700092,30.9202149 L22.7380504,30.9202149 L22.7380504,30.6005759 C22.8180594,29.9612978 22.8980684,28.6827416 23.0585865,27.7243232 C23.1385955,27.3248991 23.1385955,26.9249763 23.2186045,26.685621 L22.8980684,26.685621 L21.5364153,26.685621 C20.9753522,26.685621 20.7348252,26.365982 20.5748072,26.126128 C20.4947982,25.9665578 20.4947982,25.806489 20.4947982,25.7267039 C20.4947982,25.4873486 20.5748072,25.3272797 20.7348252,25.0874258 C21.8564513,23.4897293 22.9780774,22.131388 24.2602216,20.8533305 C24.5002486,20.5336915 24.8212847,20.4534078 25.2218297,20.4534078 C25.5418657,20.4534078 25.8629018,20.6134766 26.1834378,20.8533305 C27.3850729,22.0516029 28.506699,23.4897293 29.7083342,25.0874258 C29.9488612,25.4075635 30.0288702,25.806489 29.8688522,26.126128 C29.7083342,26.5260508 29.3882982,26.685621 28.9072441,26.685621 L27.5450909,26.685621 L27.2250549,26.685621 C27.2250549,27.00526 27.3050639,27.4844693 27.3850729,27.9636785 C27.4650819,28.9225956 27.6250999,30.0410829 27.7051089,30.680361 L27.7051089,31 L31.9520864,31 L40.7655774,31 L42.0472215,31 C44.6910188,30.9202149 47.174798,29.6416588 48.7774782,27.4844693 C49.8986043,25.1677096 50.3796584,22.4510271 49.6585773,19.9741985 L49.6585773,19.9741985 Z" id="Fill-1" fill="#FEFEFE"></path>
                    <mask id="mask-2" fill="white">
                        <use xlink:href="#path-1"></use>
                    </mask>
                    <g id="Clip-4"></g>
                    <polygon id="Fill-3" fill="#FEFEFE" mask="url(#mask-2)" points="25 59 34 59 34 57 25 57"></polygon>
                    <polygon id="Fill-5" fill="#FEFEFE" mask="url(#mask-2)" points="16 53 35 53 35 51 16 51"></polygon>
                    <polygon id="Fill-6" fill="#FEFEFE" mask="url(#mask-2)" points="16 59 23 59 23 57 16 57"></polygon>
                    <path d="M33.6368537,35 L21.1271747,35 C20.174467,35 19.2830189,35.3615976 18.6174957,36.0191822 L9.26047537,45.2460867 C8.45920118,46.0309458 8,47.1339911 8,48.2715682 L8,61 L11.857878,61 L11.857878,48.5073712 L14.8885077,48.4151219 C15.1237442,48.4151219 15.3668219,48.397856 15.671159,48.3603643 C17.9730458,48.092496 19.9852977,46.5933213 20.9208527,44.4538279 C21.1497182,43.9427569 21.3006616,43.3759416 21.3972066,42.6690257 L21.4025974,38.8868039 L33.6368537,38.8868039 C36.1190885,38.8868039 38.1391816,40.919742 38.1391816,43.4188597 L38.1391816,61 L42,61 L42,43.4188597 C42,38.7767954 38.2484685,35 33.6368537,35" id="Fill-7" fill="#FEFEFE" mask="url(#mask-2)"></path>
                </g>
            </g>
        </g>
    </g>
</svg>