<?xml version="1.0" encoding="UTF-8"?>
<svg width="67px" height="52px" viewBox="0 0 67 52" version="1.1" xmlns="http://www.w3.org/2000/svg" xmlns:xlink="http://www.w3.org/1999/xlink">
    <title>Group 9</title>
    <defs>
        <polygon id="path-1" points="0 0 44 0 44 44 0 44"></polygon>
        <polygon id="path-3" points="0 0 67 0 67 49 0 49"></polygon>
    </defs>
    <g id="Website" stroke="none" stroke-width="1" fill="none" fill-rule="evenodd">
        <g id="QES_Form13F_3b5" transform="translate(-1111.000000, -1569.000000)">
            <g id="Self-Service" transform="translate(-9.000000, 1133.000000)">
                <g id="Group-9" transform="translate(1120.000000, 436.000000)">
                    <path d="M55,49.6481268 C55,51.1200239 53.901401,52.23712 52.7175251,51.956675 C49.098518,51.0995321 45.5263605,50.4555039 42,50.0304453 C42.215298,49.7060893 42.4290168,49.3758785 42.6353661,49.0439112 L46.2343699,49.0439112 C49.0964124,49.0439112 51.8705458,48.326698 54.3820052,47 C54.6852122,47.886417 55,48.7634662 55,49.6481268" id="Fill-1" fill="#FEFEFE"></path>
                    <g id="Group-5" transform="translate(11.000000, 8.000000)">
                        <mask id="mask-2" fill="white">
                            <use xlink:href="#path-1"></use>
                        </mask>
                        <g id="Clip-4"></g>
                        <path d="M27.4182499,26.0753125 C28.1703179,27.1166047 28.6038314,28.3121824 28.6355257,29.6357041 C28.4754426,29.5394773 28.4432111,29.3744403 28.3513514,29.2524096 C27.8700279,28.5960246 27.4139524,27.9127606 26.8724634,27.3095959 C25.8571717,26.1758399 24.4679947,25.5936409 23.1475781,24.9146775 C21.4806732,24.0540121 19.9496776,22.9896039 18.6980216,21.5838325 C18.1065739,20.917771 17.6085975,20.170535 17.0654969,19.4544786 L17.2717784,19.5480175 C16.787769,19.0851612 16.3295447,18.5965011 15.9078494,18.0755862 C13.2235039,20.15387 10.5617204,20.8903545 8.65415372,21.1290399 C8.48708719,23.5787915 8.30820245,26.0366067 8.3930787,28.4729188 C8.57894693,33.7422769 10.4951087,38.1214026 13.4867277,42.1688416 C9.81663595,42.5564367 6.0960482,43.1596014 2.32926198,43.9605954 C1.11896972,44.2175586 0,43.1918562 0,41.8430682 C3.66848019,34.8803335 -0.783762277,26.869318 0.390000969,19.5367283 C0.947068468,16.0429966 2.34108019,12.6954867 4.35339924,9.79148009 C8.35869845,4.01249629 14.9081362,0 22.0377407,0 C22.5330312,0 23.0261729,0.0182777162 23.5209262,0.0553707285 C30.5065634,0.564458883 36.6939341,4.77639731 40.3226621,10.6838627 C42.2366751,13.7991382 43.4383723,17.3299629 43.8810181,20.9570144 C44.0115556,22.03755 44.0249854,23.1132473 43.9680431,24.1867944 C43.8369684,26.6279446 43.3808929,29.0207127 43.0757681,31.4253076 C40.8705974,33.2579174 38.0739789,34.3045854 35.1666989,34.3131867 C36.0793871,31.9300951 36.6890994,29.4292734 36.9114966,26.8483524 L36.9114966,26.8343753 C36.9662902,26.2059444 37.3057951,24.3545193 36.9942241,24.9168278 C34.1078946,25.7656665 30.0870169,25.6253581 26.1531641,24.4781626 C26.5952727,25.0017655 27.0239514,25.5248307 27.4182499,26.0753125" id="Fill-3" fill="#FEFEFE" mask="url(#mask-2)"></path>
                    </g>
                    <g id="Group-8">
                        <mask id="mask-4" fill="white">
                            <use xlink:href="#path-3"></use>
                        </mask>
                        <g id="Clip-7"></g>
                        <path d="M65.1796171,24.0036489 C64.6592456,22.9389447 63.5375317,22.296358 62.3510413,22.3603478 L62.0169023,22.3581969 C61.0700852,19.0742835 59.5634907,15.907595 57.5753906,13.0506387 C57.4760665,12.9108291 57.3842997,12.7823118 57.2919932,12.6516435 L56.8936174,12.1123009 C54.0877134,8.37400616 50.4893763,5.30357129 46.4786286,3.2150303 C42.4381916,1.11089517 37.9691498,-5.37729399e-05 33.5573272,-5.37729399e-05 L33.500108,-5.37729399e-05 L33.4423489,-5.37729399e-05 C29.0310662,-5.37729399e-05 24.5620243,1.11089517 20.5215873,3.2150303 C16.5108396,5.30357129 12.9125025,8.37400616 10.1065985,12.1123009 L9.70822275,12.6516435 C9.61591618,12.7823118 9.5236096,12.9108291 9.42482537,13.0506387 C7.43672524,15.907595 5.93013076,19.0742835 4.98331359,22.3581969 L4.64917458,22.3603478 C3.4626842,22.296358 2.34097036,22.9389447 1.82059878,24.0036489 C-0.32674369,28.4028131 -0.575593584,32.9052214 1.07836753,37.5103359 C1.47728309,38.6282753 2.52288449,39.3875493 3.70937487,39.4542277 C5.18843932,39.4407845 6.66534455,39.4246526 8.14386919,39.4106716 C8.18543414,39.4106716 8.18543414,39.3052767 8.19029238,39.2800034 C8.38354241,38.2749871 8.01269669,36.9532483 7.88800184,35.9503829 C7.20406948,30.5026464 7.26182857,24.9489772 9.88797767,19.9690652 C10.7306126,18.3741598 11.8042838,16.8599138 12.8272134,15.4118085 C12.9146617,15.2881308 12.9999509,15.1682171 13.0873992,15.047228 L13.4377323,14.5718752 C15.863614,11.3406593 18.9777464,8.67889873 22.4427517,6.87535433 C25.8937222,5.0788004 29.6966452,4.13078347 33.4423489,4.13078347 L33.500108,4.13078347 L33.5573272,4.13078347 C37.3035708,4.13078347 41.1064938,5.0788004 44.5574642,6.87535433 C48.0219298,8.67889873 51.136602,11.3406593 53.5624836,14.5718752 L53.9122769,15.047228 C54.0002651,15.1682171 54.0855542,15.2881308 54.1730025,15.4118085 C55.1953923,16.8599138 56.2690636,18.3741598 57.1122383,19.9690652 C59.7383874,24.9489772 59.7961464,30.5026464 59.1116743,35.9503829 C59.0150493,36.7333169 58.7688984,37.7092958 58.7570227,38.5782665 C56.0455845,42.3208631 51.6332221,44.7632301 46.6562243,44.7632301 L39.9027296,44.7632301 C39.4600899,43.551188 38.2962713,42.6832927 36.9262474,42.6832927 L35.054745,42.6832927 C33.3036191,42.6832927 31.884473,44.0975211 31.884473,45.8413775 C31.884473,47.5857717 33.3036191,49 35.054745,49 L36.9262474,49 C38.2962713,49 39.4600899,48.1321047 39.9027296,46.919525 L46.6562243,46.919525 C52.5352355,46.919525 57.7297747,43.9458814 60.8039615,39.4294922 C61.6325615,39.4380958 62.4611615,39.4466995 63.2903012,39.4542277 C64.4767916,39.3875493 65.5229328,38.6282753 65.9213086,37.5103359 C67.5752697,32.9052214 67.3269596,28.4028131 65.1796171,24.0036489" id="Fill-6" fill="#FEFEFE" mask="url(#mask-4)"></path>
                    </g>
                </g>
            </g>
        </g>
    </g>
</svg>