<?xml version="1.0" encoding="UTF-8"?>
<svg width="57px" height="57px" viewBox="0 0 57 57" version="1.1" xmlns="http://www.w3.org/2000/svg" xmlns:xlink="http://www.w3.org/1999/xlink">
    <title>Twitter Icon</title>
    <g id="Website" stroke="none" stroke-width="1" fill="none" fill-rule="evenodd">
        <g id="QES_Home" transform="translate(-1252.000000, -5080.000000)">
            <g id="Footer" transform="translate(-12.000000, 4484.000000)">
                <g id="Twitter-Icon" transform="translate(1264.593750, 596.272727)">
                    <ellipse id="Oval" fill="#0091FF" cx="27.90625" cy="28" rx="27.90625" ry="28"></ellipse>
                    <path d="M40.40625,22.2498449 C39.5073208,22.6359323 38.5549798,22.8908679 37.579964,23.0063011 C38.6088954,22.4060482 39.3788303,21.4614604 39.7461618,20.3488804 C38.7792082,20.907872 37.7205477,21.3013275 36.6170415,21.513037 C34.7551897,19.5811265 31.6401782,19.486815 29.658402,21.3018187 C28.6692775,22.2076013 28.1079506,23.4714726 28.106439,24.7942885 C28.1074467,25.1626925 28.1492691,25.530114 28.23241,25.8896763 C24.2784314,25.7010535 20.5920153,23.8894883 18.0841841,20.9039424 C16.7866825,23.0888236 17.4477784,25.8798522 19.5958364,27.2896115 C18.8133044,27.2650512 18.0484083,27.0597274 17.3641337,26.690341 L17.3641337,26.7541977 C17.3651415,29.0378112 19.0178813,31.0036149 21.3140812,31.4550325 C20.5894959,31.6446378 19.8296386,31.6731277 19.0919523,31.5385374 C19.7349084,33.4930434 21.5826514,34.8320691 23.6873753,34.8689095 C21.9439363,36.1976198 19.793359,36.9172356 17.5803,36.9123236 C17.1882781,36.9118324 16.7962563,36.8887457 16.40625,36.8435548 C18.6596197,38.2582261 21.284352,39.0073142 23.9645116,39 C33.0344255,39 37.9674509,31.6908111 37.9674509,25.3542625 L37.9674509,24.7304318 C38.9253346,24.0510948 39.7506968,23.2111337 40.40625,22.2498449" id="Fill-1" fill="#FFFFFF"></path>
                </g>
            </g>
        </g>
    </g>
</svg>